<?xml version="1.0" standalone="no"?>
<!DOCTYPE svg PUBLIC "-//W3C//DTD SVG 20010904//EN"
 "http://www.w3.org/TR/2001/REC-SVG-20010904/DTD/svg10.dtd">
<svg version="1.0" xmlns="http://www.w3.org/2000/svg"
 width="1280.000000pt" height="1140.000000pt" viewBox="0 0 1280.000000 1140.000000"
 preserveAspectRatio="xMidYMid meet">
<g transform="translate(0.000000,1140.000000) scale(0.100000,-0.100000)"
fill="#000000" stroke="none">
<path d="M4750 11244 c-979 -52 -1794 -294 -2455 -728 -732 -482 -1127 -1137
-1091 -1816 19 -355 78 -604 201 -845 l63 -124 -5 -1372 c-4 -937 -3 -1370 4
-1366 6 4 446 360 979 793 533 432 979 793 990 801 19 12 31 12 100 -6 136
-34 383 -79 554 -101 91 -12 179 -23 195 -26 20 -3 56 -29 110 -80 233 -220
501 -395 820 -535 966 -423 2255 -458 3349 -89 l120 40 275 -182 c152 -100
579 -384 948 -630 370 -246 678 -448 684 -448 7 0 9 16 5 48 -4 26 -22 208
-41 404 -47 484 -96 981 -151 1531 l-45 459 35 81 c47 110 81 233 102 364 23
143 23 468 1 603 -57 337 -217 637 -482 905 -377 382 -928 657 -1617 809 -20
5 -43 30 -92 104 -502 754 -1549 1270 -2816 1387 -160 15 -608 26 -740 19z
m465 -424 c429 -22 775 -78 1152 -186 412 -118 827 -319 1121 -543 84 -64 224
-188 252 -224 l18 -22 -347 0 c-367 -1 -492 -10 -814 -60 -322 -50 -662 -139
-957 -251 -179 -68 -529 -240 -673 -331 -453 -285 -780 -629 -957 -1008 -184
-391 -204 -791 -61 -1185 17 -46 29 -85 28 -87 -5 -4 -328 63 -390 81 -28 9
-81 33 -117 55 -43 26 -70 37 -80 31 -8 -4 -348 -278 -755 -608 -407 -331
-743 -598 -747 -594 -3 4 -3 453 0 997 4 545 5 1000 3 1013 -2 13 -14 27 -27
32 -47 18 -147 226 -185 385 -55 233 -68 532 -30 712 37 176 100 326 209 493
78 121 153 209 288 340 315 305 728 541 1251 716 408 137 865 221 1318 243
235 12 280 12 500 1z m3547 -1566 c708 -242 1202 -668 1342 -1156 52 -179 60
-496 18 -693 -26 -118 -79 -254 -112 -285 -30 -28 -44 -89 -29 -123 10 -23
181 -1728 174 -1736 -3 -2 -330 213 -728 478 -399 264 -730 481 -737 481 -7 0
-38 -18 -67 -41 -138 -104 -685 -240 -1183 -296 -216 -24 -715 -24 -928 0
-485 55 -890 165 -1257 342 -118 57 -319 174 -311 182 2 2 80 9 173 14 1173
63 2202 454 2851 1084 343 332 544 678 624 1076 19 95 23 145 22 304 0 180 -5
234 -41 399 -6 28 -5 28 28 21 19 -4 91 -27 161 -51z"/>
<path d="M1670 4800 c-452 -64 -815 -401 -917 -855 -22 -98 -22 -345 0 -442
95 -414 389 -721 795 -830 87 -24 115 -27 267 -27 152 0 180 3 268 27 468 125
792 525 814 1002 24 534 -338 1000 -862 1111 -88 19 -279 26 -365 14z"/>
<path d="M11098 4450 c-252 -30 -509 -167 -675 -361 -106 -125 -178 -265 -225
-437 -17 -62 -21 -108 -22 -237 -1 -206 24 -317 112 -489 163 -318 483 -535
834 -565 527 -44 984 280 1119 795 33 125 34 367 2 494 -78 310 -276 557 -558
696 -191 93 -382 127 -587 104z"/>
<path d="M2050 2295 c-184 -7 -514 -18 -732 -25 -219 -8 -402 -16 -406 -19 -5
-3 -95 -159 -200 -346 l-191 -340 -110 -614 c-60 -338 -107 -619 -104 -624 3
-5 145 -6 337 -3 182 4 956 11 1721 17 765 6 1393 14 1397 17 5 6 -475 1498
-485 1509 -2 2 -136 102 -297 223 l-293 220 -151 -1 c-83 -1 -302 -7 -486 -14z"/>
<path d="M10470 2033 c-69 -71 -167 -171 -218 -224 l-93 -95 -174 -740 c-96
-406 -175 -746 -175 -755 0 -15 49 -17 498 -23 1334 -18 2016 -25 2020 -21 3
2 -5 80 -17 172 -12 93 -48 371 -80 618 l-59 451 -136 334 c-75 184 -142 340
-149 346 -11 10 -1085 65 -1242 64 l-50 0 -125 -127z"/>
</g>
</svg>
