<?xml version="1.0" standalone="no"?>
<!DOCTYPE svg PUBLIC "-//W3C//DTD SVG 20010904//EN"
 "http://www.w3.org/TR/2001/REC-SVG-20010904/DTD/svg10.dtd">
<svg version="1.0" xmlns="http://www.w3.org/2000/svg"
 width="512.000000pt" height="512.000000pt" viewBox="0 0 512.000000 512.000000"
 preserveAspectRatio="xMidYMid meet">
<g transform="translate(0.000000,512.000000) scale(0.100000,-0.100000)"
fill="#000000" stroke="none">
<path d="M0 2560 l0 -2560 35 0 c20 0 35 5 35 12 0 6 242 254 537 550 l537
538 -64 0 -64 0 -491 -490 c-271 -269 -497 -490 -503 -490 -21 0 -13 28 20 67
17 21 228 235 467 476 l436 437 -65 0 -64 0 -392 -390 c-215 -214 -396 -390
-403 -390 -20 0 -12 29 21 67 17 21 183 190 367 376 l336 337 -64 0 -65 0
-292 -290 c-160 -159 -297 -290 -303 -290 -20 0 -11 29 21 67 17 21 138 145
267 276 235 236 236 237 200 237 -21 0 -42 7 -49 15 -11 13 -42 -14 -221 -190
-114 -113 -212 -205 -218 -205 -43 0 32 90 263 320 l156 155 0 64 0 64 -204
-201 c-113 -111 -210 -202 -215 -202 -43 0 32 90 263 320 l156 155 0 64 0 64
-204 -201 c-113 -111 -210 -202 -215 -202 -43 0 32 90 263 320 l156 155 0 64
0 64 -204 -201 c-113 -111 -210 -202 -215 -202 -43 0 32 90 263 320 l156 155
0 64 0 64 -204 -201 c-113 -111 -210 -202 -215 -202 -43 0 32 90 263 320 l156
155 0 64 0 64 -204 -201 c-113 -111 -210 -202 -215 -202 -43 0 32 90 263 320
l156 155 0 64 0 64 -204 -201 c-113 -111 -210 -202 -215 -202 -43 0 32 90 263
320 l156 155 0 64 0 64 -204 -201 c-113 -111 -210 -202 -215 -202 -43 0 32 90
263 320 l156 155 0 64 0 64 -204 -201 c-113 -111 -210 -202 -215 -202 -43 0
32 90 263 320 l156 155 0 64 0 64 -204 -201 c-113 -111 -210 -202 -215 -202
-43 0 32 90 263 320 l156 155 0 64 0 64 -204 -201 c-113 -111 -210 -202 -215
-202 -43 0 32 90 263 320 l156 155 0 64 0 64 -204 -201 c-113 -111 -210 -202
-215 -202 -43 0 32 90 263 320 l156 155 0 64 0 64 -204 -201 c-113 -111 -210
-202 -215 -202 -43 0 32 90 263 320 l156 155 0 64 0 64 -204 -201 c-113 -111
-210 -202 -215 -202 -43 0 32 90 263 320 l156 155 0 64 0 64 -204 -201 c-113
-111 -210 -202 -215 -202 -43 0 32 90 263 320 l156 155 0 64 0 64 -204 -201
c-113 -111 -210 -202 -215 -202 -43 0 32 90 263 320 146 145 156 157 156 192
0 50 28 78 78 78 36 0 51 14 377 341 187 187 370 367 408 400 65 56 97 72 97
48 0 -7 -174 -187 -387 -400 l-387 -389 65 0 64 0 340 341 c187 187 370 367
408 400 64 56 97 72 97 48 0 -6 -122 -134 -272 -285 l-272 -274 65 0 64 0 225
226 c303 304 390 379 390 333 0 -6 -122 -134 -271 -284 l-271 -273 61 -4 61
-3 228 228 c305 308 392 382 392 336 0 -6 -135 -147 -300 -313 l-300 -302 0
-65 0 -64 347 346 c192 190 365 360 386 377 38 33 67 41 67 21 0 -7 -174 -187
-387 -400 l-387 -389 65 0 64 0 340 341 c187 187 370 367 408 400 65 56 97 72
97 48 0 -7 -174 -187 -387 -400 l-387 -389 65 0 64 0 340 341 c187 187 370
367 408 400 65 56 97 72 97 48 0 -7 -174 -187 -387 -400 l-387 -389 65 0 64 0
340 341 c187 187 370 367 408 400 65 56 97 72 97 48 0 -7 -174 -187 -387 -400
l-387 -389 65 0 64 0 340 341 c187 187 370 367 408 400 65 56 97 72 97 48 0
-7 -174 -187 -387 -400 l-387 -389 65 0 64 0 340 341 c187 187 370 367 408
400 65 56 97 72 97 48 0 -7 -174 -187 -387 -400 l-387 -389 65 0 64 0 340 341
c187 187 370 367 408 400 65 56 97 72 97 48 0 -7 -174 -187 -387 -400 l-387
-389 65 0 64 0 340 341 c187 187 370 367 408 400 65 56 97 72 97 48 0 -7 -174
-187 -387 -400 l-387 -389 64 0 64 0 58 57 c49 49 58 63 58 93 0 55 23 80 73
80 42 0 45 3 267 226 303 304 390 379 390 333 0 -6 -122 -134 -272 -285 l-272
-274 65 0 64 0 225 226 c303 304 390 379 390 333 0 -6 -125 -138 -279 -293
-236 -238 -277 -284 -271 -301 5 -11 9 -36 9 -55 1 -34 7 -29 319 281 174 173
334 330 355 347 38 33 67 41 67 21 0 -7 -166 -179 -370 -383 -203 -205 -370
-380 -370 -389 0 -14 9 -17 48 -17 l47 0 340 341 c187 187 370 367 408 400 65
56 97 72 97 48 0 -7 -174 -187 -387 -400 l-387 -389 65 0 64 0 340 341 c187
187 370 367 408 400 65 56 97 72 97 48 0 -7 -174 -187 -387 -400 l-387 -389
65 0 64 0 340 341 c187 187 370 367 408 400 65 56 97 72 97 47 0 -6 -178 -189
-395 -407 -308 -310 -392 -399 -385 -411 5 -8 10 -33 10 -55 l0 -40 433 431
c237 237 449 445 470 462 39 33 67 41 67 20 0 -6 -218 -230 -485 -498 l-485
-486 0 -64 0 -64 533 532 c294 293 539 532 545 532 7 0 12 15 12 35 l0 35
-2560 0 -2560 0 0 -2560z m400 2540 c0 -12 -268 -288 -333 -342 -26 -22 -51
-38 -54 -34 -13 13 18 56 118 161 163 170 269 255 269 215z m200 -1 c0 -12
-461 -481 -533 -541 -26 -22 -50 -38 -53 -35 -17 16 27 69 215 260 276 281
371 362 371 316z m200 0 c0 -7 -154 -167 -342 -356 -418 -420 -465 -462 -442
-391 7 25 575 602 687 699 65 56 97 72 97 48z m200 -1 c0 -6 -199 -211 -442
-455 -524 -526 -565 -563 -543 -491 8 24 772 799 888 899 65 57 97 72 97 47z
m200 0 c0 -13 -1054 -1074 -1133 -1140 -50 -43 -63 -44 -52 -6 8 24 970 997
1088 1099 65 57 97 72 97 47z"/>
<path d="M5112 5011 c-1 -8 -245 -258 -542 -556 l-540 -541 0 -64 0 -65 518
516 c284 284 530 525 545 537 27 20 28 23 24 104 -1 46 -4 77 -5 69z"/>
<path d="M5112 4811 c-1 -8 -245 -258 -542 -556 l-540 -541 0 -64 0 -65 518
516 c284 284 530 525 545 537 27 20 28 23 24 104 -1 46 -4 77 -5 69z"/>
<path d="M5112 4611 c-1 -8 -245 -258 -542 -556 l-540 -541 0 -64 0 -65 518
516 c284 284 530 525 545 537 27 20 28 23 24 104 -1 46 -4 77 -5 69z"/>
<path d="M920 4405 l-95 -95 66 0 c58 0 68 3 91 28 22 22 27 38 30 95 2 37 3
67 3 67 0 0 -43 -43 -95 -95z"/>
<path d="M5112 4411 c-1 -8 -245 -258 -542 -556 l-540 -541 0 -64 0 -65 518
516 c284 284 530 525 545 537 27 20 28 23 24 104 -1 46 -4 77 -5 69z"/>
<path d="M5112 4211 c-1 -8 -245 -258 -542 -556 l-540 -541 0 -64 0 -65 518
516 c284 284 530 525 545 537 27 20 28 23 24 104 -1 46 -4 77 -5 69z"/>
<path d="M637 4122 l-58 -59 3 -62 3 -61 120 120 120 120 -65 0 -66 0 -57 -58z"/>
<path d="M737 4022 l-157 -157 0 -65 0 -65 215 215 c118 118 215 218 215 222
0 5 -26 8 -58 8 l-57 0 -158 -158z"/>
<path d="M1447 4132 c-44 -44 -47 -51 -47 -98 0 -66 -21 -86 -94 -92 l-54 -4
-138 -139 -139 -139 65 0 65 0 260 260 260 260 -65 0 c-65 0 -66 0 -113 -48z"/>
<path d="M1435 3920 l-260 -260 65 0 65 0 260 260 260 260 -65 0 -65 0 -260
-260z"/>
<path d="M1635 3920 l-260 -260 65 0 65 0 260 260 260 260 -65 0 -65 0 -260
-260z"/>
<path d="M1835 3920 l-260 -260 65 0 65 0 260 260 260 260 -65 0 -65 0 -260
-260z"/>
<path d="M2035 3920 l-260 -260 65 0 65 0 260 260 260 260 -65 0 -65 0 -260
-260z"/>
<path d="M2235 3920 l-260 -260 65 0 65 0 260 260 260 260 -65 0 -65 0 -260
-260z"/>
<path d="M2435 3920 l-260 -260 65 0 65 0 260 260 260 260 -65 0 -65 0 -260
-260z"/>
<path d="M2635 3920 l-260 -260 65 0 65 0 260 260 260 260 -65 0 -65 0 -260
-260z"/>
<path d="M3435 3920 l-260 -260 65 0 65 0 260 260 260 260 -65 0 -65 0 -260
-260z"/>
<path d="M3630 3915 l-255 -255 65 0 65 0 193 193 193 193 -3 62 -3 62 -255
-255z"/>
<path d="M2820 3905 l-245 -245 65 0 65 0 183 183 183 183 -3 62 -3 62 -245
-245z"/>
<path d="M790 3875 l-215 -215 65 0 65 0 157 158 157 157 -7 58 -7 57 -215
-215z"/>
<path d="M5112 4011 c-1 -8 -245 -258 -542 -556 l-540 -541 0 -64 0 -65 518
516 c284 284 530 525 545 537 27 20 28 23 24 104 -1 46 -4 77 -5 69z"/>
<path d="M2929 3814 l-154 -154 65 0 65 0 140 140 c118 118 136 140 115 140
-14 0 -37 6 -51 14 -26 13 -29 12 -180 -140z"/>
<path d="M3730 3815 l-155 -155 65 0 65 0 93 93 93 93 -3 62 -3 62 -155 -155z"/>
<path d="M920 3805 l-145 -145 65 0 65 0 140 140 140 140 -47 0 c-25 0 -52 2
-60 5 -8 3 -72 -54 -158 -140z"/>
<path d="M3115 3800 l-140 -140 65 0 65 0 140 140 140 140 -65 0 -65 0 -140
-140z"/>
<path d="M5112 3811 c-1 -8 -245 -258 -542 -556 l-540 -541 0 -44 0 -45 45 77
c36 62 52 80 88 97 24 12 56 21 72 21 26 0 86 56 430 398 220 219 413 408 428
420 27 20 28 23 24 104 -1 46 -4 77 -5 69z"/>
<path d="M5112 3611 c-1 -7 -180 -192 -397 -410 l-395 -397 43 -21 42 -21 330
327 c182 180 343 337 358 349 27 20 28 23 24 104 -1 46 -4 77 -5 69z"/>
<path d="M611 3496 c-30 -31 -32 -37 -29 -95 l3 -62 95 96 95 95 -66 0 c-61 0
-67 -2 -98 -34z"/>
<path d="M712 3397 l-133 -133 3 -62 3 -62 195 195 195 195 -65 0 -65 0 -133
-133z"/>
<path d="M812 3297 l-233 -233 3 -62 3 -62 295 295 295 295 -65 0 -65 0 -233
-233z"/>
<path d="M912 3197 l-333 -333 3 -62 3 -62 395 395 395 395 -65 0 -65 0 -333
-333z"/>
<path d="M1012 3097 l-433 -433 3 -62 3 -62 495 495 495 495 -65 0 -65 0 -433
-433z"/>
<path d="M1112 2997 l-533 -533 3 -62 3 -62 595 595 595 595 -65 0 -65 0 -533
-533z"/>
<path d="M1385 3070 l-460 -460 65 0 65 0 460 460 460 460 -65 0 -65 0 -460
-460z"/>
<path d="M1585 3070 l-460 -460 65 0 65 0 460 460 460 460 -65 0 -65 0 -460
-460z"/>
<path d="M1774 3058 l-471 -473 6 -58 6 -57 530 530 530 530 -65 0 -65 0 -471
-472z"/>
<path d="M1877 2962 l-568 -568 3 -62 3 -62 630 630 630 630 -65 0 -65 0 -568
-568z"/>
<path d="M2185 3070 l-460 -460 65 0 65 0 268 268 267 267 0 51 c0 75 21 96
97 102 l61 4 113 114 114 114 -65 0 -65 0 -460 -460z"/>
<path d="M2730 3415 l-115 -115 65 0 65 0 115 115 115 115 -65 0 -65 0 -115
-115z"/>
<path d="M2927 3412 c-103 -104 -116 -120 -103 -132 9 -7 19 -25 24 -41 7 -29
9 -28 167 131 l160 160 -65 0 -65 0 -118 -118z"/>
<path d="M3047 3332 l-198 -198 3 -62 3 -62 260 260 260 260 -65 0 -65 0 -198
-198z"/>
<path d="M3327 3413 l-117 -118 69 3 68 4 114 114 114 114 -65 0 -65 0 -118
-117z"/>
<path d="M3530 3415 l-115 -115 65 0 65 0 115 115 115 115 -65 0 -65 0 -115
-115z"/>
<path d="M3722 3407 c-118 -118 -122 -124 -112 -151 5 -15 10 -39 10 -54 0
-24 16 -11 135 108 131 131 135 136 135 177 0 74 -28 60 -168 -80z"/>
<path d="M5112 3411 c-1 -7 -148 -160 -327 -340 -179 -180 -325 -330 -325
-334 0 -4 17 -15 38 -26 l37 -20 265 263 c146 144 278 272 293 284 27 20 28
23 24 104 -1 46 -4 77 -5 69z"/>
<path d="M3753 3238 l-133 -133 0 -65 0 -65 136 136 135 135 -3 62 -3 62 -132
-132z"/>
<path d="M3003 3088 c-108 -108 -153 -160 -153 -176 0 -30 -43 -72 -72 -72
-16 0 -58 -35 -138 -115 l-115 -115 65 0 65 0 253 253 253 253 -3 62 -3 62
-152 -152z"/>
<path d="M5112 3212 c-1 -7 -120 -132 -263 -277 l-262 -264 33 -31 33 -31 206
204 c113 112 219 213 234 225 27 20 28 23 24 104 -1 46 -4 77 -5 70z"/>
<path d="M3748 3033 c-76 -76 -138 -144 -138 -151 0 -6 -17 -23 -37 -36 -21
-13 -85 -72 -143 -130 l-105 -106 65 0 65 0 218 218 218 218 -3 62 -3 62 -137
-137z"/>
<path d="M2602 3087 c-87 -88 -92 -107 -25 -107 42 0 52 5 90 42 39 38 43 47
43 90 0 68 -20 63 -108 -25z"/>
<path d="M3385 3070 l-90 -90 66 0 c59 0 68 3 93 29 24 25 27 34 24 90 l-3 62
-90 -91z"/>
<path d="M2156 2841 l-229 -229 62 -4 61 -3 171 171 170 170 -3 62 -3 62 -229
-229z"/>
<path d="M2940 2825 l-215 -215 41 0 c22 0 46 -6 52 -12 10 -10 47 23 178 153
l165 165 -3 62 -3 62 -215 -215z"/>
<path d="M5112 3012 c-1 -7 -100 -113 -221 -235 -202 -205 -218 -224 -214
-252 3 -17 -2 -50 -11 -74 -14 -42 -3 -32 192 161 114 112 220 214 235 226 27
20 28 23 24 104 -1 46 -4 77 -5 70z"/>
<path d="M3705 2790 c-148 -148 -175 -180 -156 -180 14 0 34 -9 46 -20 l21
-20 137 138 138 138 -3 62 -3 62 -180 -180z"/>
<path d="M2234 2720 l-159 -159 5 -60 5 -61 200 200 c147 147 194 200 179 200
-12 0 -32 9 -46 19 l-24 19 -160 -158z"/>
<path d="M3012 2698 l-162 -163 0 -65 0 -65 215 215 215 215 -37 6 c-21 3 -45
9 -53 13 -10 4 -64 -43 -178 -156z"/>
<path d="M2317 2602 l-237 -237 0 -65 0 -65 146 145 c80 80 157 162 170 183
14 21 35 42 47 47 12 4 71 58 132 119 l110 111 -65 0 -65 0 -238 -238z"/>
<path d="M3103 2588 l-252 -253 -3 -67 -3 -68 158 157 c104 105 157 165 157
179 0 33 38 74 68 74 21 0 52 25 142 115 l115 115 -65 0 -65 0 -252 -252z"/>
<path d="M5112 2812 c-1 -8 -125 -138 -275 -290 l-274 -277 -68 -130 -67 -130
318 316 c176 174 332 325 347 337 27 20 28 23 24 104 -1 46 -4 77 -5 70z"/>
<path d="M3753 2638 l-133 -133 0 -65 0 -65 136 136 135 135 -3 62 -3 62 -132
-132z"/>
<path d="M4282 2567 l-62 -63 41 -23 41 -24 66 66 65 65 -41 21 c-23 12 -43
21 -44 21 -2 0 -32 -28 -66 -63z"/>
<path d="M5112 2611 c-1 -7 -175 -187 -386 -400 l-384 -386 -67 -130 -68 -130
429 426 c236 234 442 435 457 447 27 20 28 23 24 104 -1 46 -4 77 -5 69z"/>
<path d="M3753 2438 c-129 -130 -133 -134 -133 -176 0 -43 -13 -81 -34 -94 -6
-4 -34 -8 -61 -8 l-50 0 -318 -322 c-175 -178 -326 -331 -335 -340 -9 -9 -75
-73 -147 -142 l-130 -126 65 0 65 0 608 608 608 608 -3 62 -3 62 -132 -132z"/>
<path d="M4413 2498 l-62 -63 41 -23 42 -23 54 54 c59 60 63 84 16 105 -14 7
-26 12 -27 12 -2 0 -30 -28 -64 -62z"/>
<path d="M718 2403 l-138 -138 0 -65 0 -65 141 141 140 140 -3 62 -3 62 -137
-137z"/>
<path d="M1325 2210 l-290 -290 65 0 65 0 228 228 228 228 -3 62 -3 62 -290
-290z"/>
<path d="M2110 2195 l-275 -275 65 0 65 0 213 213 213 213 -3 62 -3 62 -275
-275z"/>
<path d="M2556 2441 c-24 -25 -27 -34 -24 -90 l3 -62 90 91 90 90 -66 0 c-59
0 -68 -3 -93 -29z"/>
<path d="M3342 2427 c-37 -38 -42 -48 -42 -90 0 -67 21 -62 108 26 87 88 92
107 24 107 -43 0 -52 -4 -90 -43z"/>
<path d="M2895 2180 l-260 -260 65 0 65 0 198 198 198 198 -3 62 -3 62 -260
-260z"/>
<path d="M5112 2411 c-1 -7 -228 -241 -504 -520 l-503 -506 -63 -125 -63 -125
543 541 c299 297 556 550 571 562 27 20 28 23 24 104 -1 46 -4 77 -5 69z"/>
<path d="M4068 2352 c-28 -29 -71 -97 -113 -177 l-67 -130 155 155 c86 85 155
155 154 156 -1 1 -20 11 -43 22 l-41 21 -45 -47z"/>
<path d="M3315 1800 l-570 -570 65 0 65 0 447 448 447 447 61 115 c33 63 59
118 58 122 -2 5 -259 -248 -573 -562z"/>
<path d="M718 2203 l-138 -138 0 -65 0 -65 141 141 140 140 -3 62 -3 62 -137
-137z"/>
<path d="M4023 2107 l-221 -222 -68 -130 -67 -130 331 330 c182 181 330 330
329 331 -1 1 -20 11 -43 22 l-41 21 -220 -222z"/>
<path d="M1425 2110 c-142 -143 -184 -190 -168 -190 12 0 30 -11 40 -25 l18
-25 157 157 157 158 -7 58 -7 57 -190 -190z"/>
<path d="M2213 2098 l-172 -173 20 -24 c10 -13 19 -33 19 -44 0 -16 42 20 165
143 135 134 164 168 158 185 -3 11 -9 35 -12 53 l-6 32 -172 -172z"/>
<path d="M3970 1853 l-405 -408 -63 -125 -63 -125 435 434 c419 419 436 437
481 522 41 80 49 109 27 109 -4 0 -190 -183 -412 -407z"/>
<path d="M2991 2076 c-93 -94 -161 -168 -157 -175 4 -6 10 -29 14 -51 l7 -40
175 175 c156 156 173 176 157 187 -10 7 -21 25 -25 41 -7 26 -11 23 -171 -137z"/>
<path d="M5112 2211 c-1 -8 -276 -289 -611 -625 -560 -561 -612 -617 -644
-681 -41 -82 -49 -90 -142 -140 -59 -32 -122 -89 -405 -370 -184 -182 -352
-346 -373 -363 l-38 -32 83 0 83 0 28 38 c31 43 1956 1967 2000 2000 27 20 28
23 24 104 -1 46 -4 77 -5 69z"/>
<path d="M729 2014 l-150 -150 3 -62 3 -62 209 209 209 209 -62 4 -61 3 -151
-151z"/>
<path d="M827 1912 l-247 -247 0 -65 0 -65 140 140 c129 129 140 143 140 177
0 47 22 68 68 68 34 0 47 10 157 120 l120 120 -65 0 -65 0 -248 -248z"/>
<path d="M1492 1977 l-183 -183 3 -62 3 -62 245 245 245 245 -65 0 -65 0 -183
-183z"/>
<path d="M1592 1877 c-277 -277 -282 -283 -282 -323 0 -54 -31 -84 -86 -84
-37 0 -46 -7 -159 -120 l-120 -120 65 0 65 0 273 273 c272 272 272 272 272
315 0 43 13 81 34 94 6 4 34 8 61 8 l50 0 120 120 120 120 -65 0 -65 0 -283
-283z"/>
<path d="M2277 1962 l-198 -198 3 -62 3 -62 260 260 260 260 -65 0 -65 0 -198
-198z"/>
<path d="M2555 2040 l-120 -120 65 0 65 0 120 120 120 120 -65 0 -65 0 -120
-120z"/>
<path d="M3062 1947 l-213 -213 3 -62 3 -62 275 275 275 275 -65 0 -65 0 -213
-213z"/>
<path d="M5112 2011 c-2 -17 -1840 -1860 -1945 -1952 l-68 -59 83 0 83 0 28
38 c31 43 1756 1767 1800 1800 27 20 28 23 24 104 -1 46 -4 76 -5 69z"/>
<path d="M3310 1595 l-365 -365 65 0 65 0 237 238 236 237 67 128 c37 70 65
127 63 127 -2 0 -167 -164 -368 -365z"/>
<path d="M3827 1512 c-213 -213 -387 -390 -387 -393 0 -3 18 -14 41 -24 l40
-19 282 282 282 282 68 130 c38 72 67 130 65 130 -2 0 -177 -174 -391 -388z"/>
<path d="M2237 1722 c-103 -103 -157 -164 -157 -178 0 -33 -38 -74 -68 -74
-21 0 -53 -26 -147 -120 l-120 -120 65 0 65 0 257 258 257 257 3 68 c2 37 3
67 3 67 0 0 -71 -71 -158 -158z"/>
<path d="M5112 1811 c-2 -17 -1640 -1661 -1745 -1752 l-68 -59 83 0 83 0 28
38 c31 43 1556 1567 1600 1600 27 20 28 23 24 104 -1 46 -4 77 -5 69z"/>
<path d="M1047 1732 c-46 -46 -57 -64 -57 -90 0 -29 3 -32 32 -32 26 0 44 11
90 57 47 47 58 63 58 90 0 31 -2 33 -33 33 -27 0 -43 -11 -90 -58z"/>
<path d="M1832 1717 c-87 -88 -92 -107 -25 -107 42 0 52 5 90 42 39 38 43 47
43 90 0 68 -20 63 -108 -25z"/>
<path d="M2615 1700 l-90 -90 66 0 c59 0 68 3 93 29 24 25 27 34 24 90 l-3 62
-90 -91z"/>
<path d="M718 1603 l-138 -138 0 -65 0 -65 141 141 140 140 -3 62 -3 62 -137
-137z"/>
<path d="M1380 1465 l-235 -235 65 0 65 0 173 173 173 173 -3 62 -3 62 -235
-235z"/>
<path d="M2165 1450 l-220 -220 65 0 65 0 158 158 158 158 -3 62 -3 62 -220
-220z"/>
<path d="M5112 1611 c-2 -17 -1441 -1462 -1545 -1552 l-68 -59 83 0 83 0 28
38 c31 43 1356 1367 1400 1400 27 20 28 23 24 104 -1 46 -4 77 -5 69z"/>
<path d="M718 1403 c-76 -76 -138 -146 -138 -156 0 -14 9 -17 48 -17 47 0 48
0 165 118 l118 119 -25 16 c-13 9 -26 26 -28 37 -2 17 -30 -6 -140 -117z"/>
<path d="M3300 1385 l-155 -155 66 0 c58 0 68 3 91 28 21 23 164 282 156 282
-2 0 -73 -70 -158 -155z"/>
<path d="M1484 1369 l-139 -139 65 0 65 0 120 120 c90 91 115 120 99 120 -12
0 -32 9 -46 19 l-25 20 -139 -140z"/>
<path d="M2275 1360 l-130 -130 65 0 65 0 119 119 118 119 -38 4 c-22 3 -46 8
-54 12 -11 4 -54 -33 -145 -124z"/>
<path d="M3781 1266 l-214 -214 34 -21 c19 -12 39 -21 44 -21 6 0 58 48 116
108 96 97 113 119 173 235 37 70 65 127 64 127 -2 0 -99 -96 -217 -214z"/>
<path d="M865 1350 l-120 -120 65 0 65 0 120 120 120 120 -65 0 -65 0 -120
-120z"/>
<path d="M1665 1350 l-120 -120 65 0 65 0 120 120 120 120 -65 0 -65 0 -120
-120z"/>
<path d="M2465 1350 l-120 -120 65 0 65 0 120 120 120 120 -65 0 -65 0 -120
-120z"/>
<path d="M5112 1411 c-2 -17 -1242 -1263 -1345 -1352 l-68 -59 83 0 83 0 28
38 c31 43 1156 1167 1200 1200 27 20 28 23 24 104 -1 46 -4 77 -5 69z"/>
<path d="M5112 1211 c-2 -16 -1043 -1064 -1145 -1152 l-68 -59 83 0 83 0 28
38 c31 43 956 967 1000 1000 27 20 28 23 24 104 -1 46 -4 77 -5 69z"/>
<path d="M725 609 c-270 -270 -520 -517 -558 -550 l-68 -59 86 0 c58 0 85 4
85 12 0 6 242 254 537 550 l537 538 -64 0 -65 0 -490 -491z"/>
<path d="M925 609 c-270 -270 -520 -517 -558 -550 l-68 -59 86 0 c58 0 85 4
85 12 0 6 242 254 537 550 l537 538 -64 0 -65 0 -490 -491z"/>
<path d="M1125 609 c-270 -270 -520 -517 -558 -550 l-68 -59 86 0 c58 0 85 4
85 12 0 6 242 254 537 550 l537 538 -64 0 -65 0 -490 -491z"/>
<path d="M1325 609 c-270 -270 -520 -517 -558 -550 l-68 -59 86 0 c58 0 85 4
85 12 0 6 242 254 537 550 l537 538 -64 0 -65 0 -490 -491z"/>
<path d="M1525 609 c-270 -270 -520 -517 -558 -550 l-68 -59 86 0 c58 0 85 4
85 12 0 6 242 254 537 550 l537 538 -64 0 -65 0 -490 -491z"/>
<path d="M1725 609 c-270 -270 -520 -517 -558 -550 l-68 -59 86 0 c58 0 85 4
85 12 0 6 242 254 537 550 l537 538 -64 0 -65 0 -490 -491z"/>
<path d="M1925 609 c-270 -270 -520 -517 -558 -550 l-68 -59 86 0 c58 0 85 4
85 12 0 6 242 254 537 550 l537 538 -64 0 -65 0 -490 -491z"/>
<path d="M2125 609 c-270 -270 -520 -517 -558 -550 l-68 -59 86 0 c58 0 85 4
85 12 0 6 242 254 537 550 l537 538 -64 0 -65 0 -490 -491z"/>
<path d="M2325 609 c-270 -270 -520 -517 -558 -550 l-68 -59 86 0 c58 0 85 4
85 12 0 6 242 254 537 550 l537 538 -64 0 -65 0 -490 -491z"/>
<path d="M2525 609 c-270 -270 -520 -517 -558 -550 l-68 -59 86 0 c58 0 85 4
85 12 0 6 242 254 537 550 l537 538 -64 0 -65 0 -490 -491z"/>
<path d="M2725 609 c-270 -270 -520 -517 -558 -550 l-68 -59 86 0 c58 0 85 4
85 12 0 6 221 233 491 504 l492 492 -7 46 c-4 25 -13 46 -19 46 -7 0 -233
-221 -502 -491z"/>
<path d="M5112 1011 c-2 -16 -845 -866 -945 -952 l-68 -59 83 0 83 0 28 39
c32 42 756 766 800 799 27 20 28 23 24 104 -1 46 -4 77 -5 69z"/>
<path d="M2845 529 c-225 -226 -440 -437 -478 -470 l-68 -59 86 0 c57 0 85 4
85 12 0 6 179 191 398 412 l399 401 -6 58 -6 57 -410 -411z"/>
<path d="M5112 811 c-2 -16 -648 -668 -745 -752 l-68 -59 83 0 83 0 28 39 c32
42 555 565 600 599 27 20 28 23 24 104 -1 46 -4 77 -5 69z"/>
<path d="M2949 434 c-173 -174 -344 -342 -382 -375 l-68 -59 86 0 c56 0 85 4
85 11 0 6 137 150 305 318 l305 307 0 52 c0 28 -4 53 -8 56 -5 3 -150 -137
-323 -310z"/>
<path d="M3425 604 c-29 -17 -52 -24 -83 -22 l-43 2 -262 -260 c-144 -143
-279 -275 -300 -292 l-38 -32 86 0 c56 0 85 4 85 11 0 6 136 148 302 315 166
167 300 304 297 303 -2 0 -22 -12 -44 -25z"/>
<path d="M5112 612 c-3 -16 -453 -474 -545 -553 l-68 -59 83 0 83 0 29 39 c31
43 353 364 399 398 27 21 28 24 24 105 -1 46 -4 77 -5 70z"/>
<path d="M5112 413 c-3 -16 -263 -284 -345 -355 l-68 -58 83 0 83 0 30 41 c31
42 149 159 198 196 27 21 28 24 24 105 -1 46 -4 78 -5 71z"/>
<path d="M5075 167 c-22 -27 -70 -76 -108 -108 l-68 -59 80 0 c76 0 81 2 111
31 30 30 31 34 28 109 l-3 77 -40 -50z"/>
</g>
</svg>
