<?xml version="1.0" standalone="no"?>
<!DOCTYPE svg PUBLIC "-//W3C//DTD SVG 20010904//EN"
 "http://www.w3.org/TR/2001/REC-SVG-20010904/DTD/svg10.dtd">
<svg version="1.0" xmlns="http://www.w3.org/2000/svg"
 width="225.000000pt" height="225.000000pt" viewBox="0 0 225.000000 225.000000"
 preserveAspectRatio="xMidYMid meet">
<g transform="translate(0.000000,225.000000) scale(0.100000,-0.100000)"
fill="#000000" stroke="none">
<path d="M1380 2191 c-97 -72 -159 -163 -196 -286 -22 -74 -22 -219 0 -290 13
-43 14 -51 1 -65 -30 -33 -8 -90 34 -90 20 0 91 70 91 90 0 8 -8 38 -19 65
-41 108 -35 226 16 334 26 53 87 131 104 131 5 0 10 -80 11 -177 l3 -178 125
-87 c69 -48 135 -91 147 -94 17 -4 53 16 155 87 73 50 135 94 138 96 3 3 7 86
10 186 l5 182 47 -63 c70 -94 92 -157 92 -272 0 -75 -5 -107 -23 -152 -84
-215 -295 -326 -519 -273 -41 10 -69 12 -80 6 -35 -19 -182 -179 -182 -198 0
-22 29 -53 51 -53 7 0 48 34 90 76 l77 76 51 -11 c305 -65 604 161 637 480 15
152 -48 323 -160 434 -80 78 -125 103 -160 87 l-26 -12 0 -217 0 -218 -97 -67
-97 -67 -80 56 c-45 31 -89 63 -98 71 -16 14 -18 38 -18 227 0 151 -3 214 -12
223 -22 22 -52 12 -118 -37z"/>
<path d="M207 2209 c-84 -20 -150 -80 -182 -163 -22 -57 -16 -145 13 -202 12
-22 195 -213 431 -449 281 -280 411 -417 411 -431 0 -22 29 -54 49 -54 7 0 37
23 67 52 l55 52 263 -263 263 -263 27 -77 c26 -76 30 -80 189 -239 95 -95 170
-162 181 -162 11 0 67 47 127 107 83 81 109 113 109 133 0 19 -37 61 -162 186
-157 155 -166 163 -233 185 -69 24 -72 26 -332 283 -145 143 -263 265 -263
271 0 6 20 31 45 55 27 26 45 53 45 66 0 29 -25 54 -53 54 -15 0 -146 124
-437 415 -267 266 -427 419 -450 429 -49 20 -118 26 -163 15z m118 -108 c26
-13 176 -155 443 -423 l402 -403 -110 -110 -110 -110 -405 405 c-223 223 -412
420 -421 439 -20 42 -14 113 13 150 22 29 97 71 128 71 11 0 38 -9 60 -19z
m1090 -1270 l270 -269 76 -27 c72 -25 81 -32 205 -156 l129 -129 -60 -60 -60
-60 -127 127 c-121 121 -129 131 -154 203 l-27 75 -274 275 c-238 240 -282
290 -254 290 3 0 127 -121 276 -269z"/>
<path d="M226 1989 c-8 -12 -12 -29 -9 -38 3 -9 168 -179 367 -378 256 -258
367 -363 383 -363 21 0 53 33 53 54 0 6 -165 176 -367 378 -262 262 -374 368
-390 368 -12 0 -29 -10 -37 -21z"/>
<path d="M377 743 c-175 -175 -330 -338 -345 -363 -22 -37 -27 -57 -27 -115 0
-59 5 -78 28 -118 65 -110 201 -154 312 -100 47 23 785 764 785 788 0 28 -19
45 -50 45 -20 0 -101 -76 -395 -370 -409 -410 -406 -407 -490 -376 -70 27
-104 89 -90 164 6 32 50 81 331 362 264 265 324 331 324 352 0 27 -23 48 -51
48 -8 0 -157 -143 -332 -317z"/>
</g>
</svg>
