<?xml version="1.0" standalone="no"?>
<!DOCTYPE svg PUBLIC "-//W3C//DTD SVG 20010904//EN"
 "http://www.w3.org/TR/2001/REC-SVG-20010904/DTD/svg10.dtd">
<svg version="1.0" xmlns="http://www.w3.org/2000/svg"
 width="200.000000pt" height="200.000000pt" viewBox="0 0 200.000000 200.000000"
 preserveAspectRatio="xMidYMid meet">

<g transform="translate(0.000000,200.000000) scale(0.100000,-0.100000)"
fill="#000000" stroke="none">
<path d="M508 1287 c-268 -155 -488 -284 -488 -287 0 -3 221 -132 490 -287
l490 -283 490 283 c269 155 490 284 490 287 0 5 -963 563 -978 567 -4 1 -226
-125 -494 -280z m558 162 c30 -17 53 -36 52 -41 -2 -5 -29 -24 -61 -41 l-57
-32 -57 32 c-32 18 -58 37 -58 43 0 11 92 69 113 69 7 1 37 -13 68 -30z m-165
-90 c32 -18 59 -35 59 -38 0 -10 -128 -71 -148 -71 -23 0 -126 49 -119 56 10
11 132 82 141 83 4 1 35 -13 67 -30z m334 -8 c36 -22 69 -42 72 -45 7 -7 -96
-56 -119 -56 -20 0 -148 61 -148 71 0 6 109 68 121 69 4 0 37 -18 74 -39z
m-468 -128 c-3 -3 -35 -22 -72 -44 l-66 -38 -42 17 c-53 21 -83 39 -77 45 3 2
36 22 75 44 l70 41 58 -30 c33 -16 57 -32 54 -35z m701 -5 c30 -15 28 -23 -11
-41 -82 -39 -81 -39 -154 3 -37 22 -67 43 -66 47 0 4 25 19 54 34 l54 27 50
-30 c27 -16 60 -34 73 -40z m-363 -37 c50 -36 53 -47 17 -54 -16 -3 -50 -22
-76 -41 l-46 -36 -46 36 c-26 19 -60 38 -75 41 -16 3 -29 9 -29 13 0 12 69 61
98 71 45 14 114 1 157 -30z m-574 -28 c32 -16 59 -31 59 -34 0 -4 -31 -28 -69
-54 l-70 -48 -66 38 -67 37 73 44 c41 24 75 43 77 44 2 0 30 -12 63 -27z
m1078 -17 l73 -44 -67 -37 -66 -38 -70 48 c-38 26 -69 50 -69 54 0 7 100 59
115 60 6 0 43 -19 84 -43z m-835 -38 c-10 -17 -136 -168 -140 -168 -2 0 -37
17 -78 37 l-75 37 76 53 c76 52 77 53 150 53 57 0 72 -3 67 -12z m137 -16 c79
-51 79 -52 11 -134 -33 -40 -71 -83 -84 -96 l-24 -22 -77 44 -77 44 43 48 c23
27 59 70 80 97 45 56 65 59 128 19z m301 -14 c18 -23 54 -67 80 -97 l48 -54
-77 -43 -77 -44 -24 22 c-13 13 -51 56 -84 96 -68 82 -68 83 11 134 62 39 83
36 123 -14z m230 -11 l76 -53 -74 -37 c-41 -20 -76 -37 -78 -37 -4 0 -130 151
-140 168 -5 9 10 12 66 12 73 0 75 -1 150 -53z m-1079 -21 c64 -37 65 -35 -20
-82 l-53 -29 -57 32 c-32 18 -58 37 -58 43 0 12 93 69 115 69 8 0 41 -15 73
-33z m1412 3 c30 -17 55 -35 55 -39 0 -4 -25 -22 -56 -40 -64 -36 -76 -35
-148 11 l-49 31 59 34 c32 18 65 34 72 34 7 0 37 -14 67 -31z m-1175 -131 c0
-13 -121 -90 -133 -85 -7 3 -43 23 -81 45 l-68 40 68 40 68 40 73 -36 c40 -20
73 -40 73 -44z m445 35 c21 -27 56 -67 78 -89 l39 -42 -75 -51 c-42 -28 -81
-51 -87 -51 -6 0 -45 23 -87 51 l-75 51 39 42 c22 22 57 62 78 89 20 26 41 47
45 47 4 0 25 -21 45 -47z m588 -8 l49 -28 -69 -40 c-37 -21 -73 -41 -80 -44
-12 -5 -133 72 -133 85 0 4 33 24 73 44 62 31 75 34 92 24 11 -7 42 -25 68
-41z m-854 -120 c11 -11 2 -20 -55 -59 l-67 -45 -41 25 c-23 14 -56 33 -73 41
-18 9 -33 20 -33 24 0 4 22 21 49 39 27 17 55 38 62 46 10 12 21 9 78 -22 36
-20 72 -42 80 -49z m669 20 c23 -15 42 -31 42 -34 0 -4 -15 -15 -32 -24 -18
-8 -51 -27 -74 -41 l-41 -25 -67 45 c-36 25 -64 49 -61 54 3 6 38 28 78 50 70
38 72 39 92 21 11 -10 39 -31 63 -46z m-552 -95 c41 -28 73 -54 70 -58 -2 -4
-33 -22 -68 -41 l-63 -33 -66 38 c-36 22 -67 43 -70 47 -3 7 102 91 119 96 2
1 37 -22 78 -49z m349 4 c36 -25 65 -47 65 -49 0 -2 -34 -22 -75 -45 l-75 -42
-66 37 c-43 24 -63 40 -56 47 8 8 133 96 139 97 1 1 32 -20 68 -45z m-181
-113 c73 -43 74 -40 -11 -87 l-53 -29 -52 29 c-86 47 -85 45 -16 86 35 21 64
39 64 39 1 1 32 -16 68 -38z"/>
</g>
</svg>
