<?xml version="1.0" encoding="utf-8"?>
<svg version="1.1" xmlns:xlink="http://www.w3.org/1999/xlink" width="37px" height="35px" xmlns="http://www.w3.org/2000/svg">
  <g transform="matrix(1 0 0 1 -13 -605 )">
    <path d="M 31.6815365551425 19.9961028838659  C 31.696819496076 20.0324759677838  31.7044609665428 20.0870355936607  31 20.1597817614965  L 31 33.2540919719408  C 31.7044609665428 33.7269420628735  31.5592730276745 34.1361392569499  31.268897149938 34.4816835541699  C 30.9785212722016 34.82722785139  30.6346551011979 35  30.2372986369269 35  L 21 35  L 21 24.5245518316446  L 16 24.5245518316446  L 16 35  L 6.76270136307311 35  C 6.36534489880215 35  6.02147872779843 34.82722785139  5.73110285006196 34.4816835541699  C 5.44072697232549 34.1361392569499  5.29553903345725 33.7269420628735  6 33.2540919719408  L 6 20.1597817614965  C 5.29553903345725 20.1415952195375  5.29935976869062 20.1143154065991  5.30700123915737 20.0779423226812  C 5.31464270962412 20.0415692387633  5.3184634448575 20.0142894258249  5.3184634448575 19.9961028838659  L 18.5 7.06547155105222  L 31.6815365551425 19.9961028838659  Z M 36.9770755885998 17.6363990646921  C 36.9923585295333 17.881917381138  36.938868236266 18.0956092491556  36.816604708798 18.2774746687451  L 35.3952912019827 20.2961808261886  C 35.2730276745147 20.4598597038192  35.1125567947129 20.5598856845934  34.9138785625775 20.5962587685113  L 34.8451053283767 20.5962587685113  C 34.6464270962412 20.5962587685113  34.4859562164395 20.532605871655  34.3636926889715 20.4053000779423  L 18.5 4.66484801247077  L 2.6363073110285 20.4053000779423  C 2.45291201982652 20.5507924136139  2.26951672862454 20.6144453104703  2.08612143742255 20.5962587685113  C 1.88744320528707 20.5598856845934  1.72697232548534 20.4598597038192  1.60470879801735 20.2961808261886  L 0.183395291201983 18.2774746687451  C 0.0611317637339942 18.0956092491556  0.00764147046674933 17.881917381138  0.0229244114002478 17.6363990646921  C 0.0382073523337465 17.3908807482463  0.122263527467988 17.1953754221876  0.275092936802974 17.049883086516  L 16.7577447335812 0.709275136399066  C 17.2467988434531 0.236425045466351  17.8275505989261 0  18.5 0  C 19.1724494010739 0  19.7532011565469 0.236425045466351  20.2422552664188 0.709275136399066  L 25.8358116480793 6.27435697583788  L 25.8358116480793 0.954793452844893  C 25.8358116480793 0.700181865419586  25.90458488228 0.491036632891659  26.0421313506815 0.327357755261108  C 26.179677819083 0.163678877630554  26.3554316398183 0.0818394388152771  26.5693928128872 0.0818394388152771  L 30.9708798017348 0.0818394388152771  C 31.1848409748038 0.0818394388152771  31.360594795539 0.163678877630554  31.4981412639405 0.327357755261108  C 31.635687732342 0.491036632891659  31.7044609665428 0.700181865419586  31 0.954793452844893  L 31 12.0849571317225  L 36.724907063197 17.049883086516  C 36.877736472532 17.1953754221876  36.9617926476663 17.3908807482463  36.9770755885998 17.6363990646921  Z " fill-rule="nonzero" fill="#068a7a" stroke="none" transform="matrix(1 0 0 1 13 605 )" />
  </g>
</svg>