<?xml version="1.0" encoding="utf-8"?>
<svg version="1.1" xmlns:xlink="http://www.w3.org/1999/xlink" width="25px" height="23px" xmlns="http://www.w3.org/2000/svg">
  <g transform="matrix(1 0 0 1 -144 -360 )">
    <path d="M 18.8151041666667 0.872767857142858  L 23.8932291666667 4.87723214285714  C 24.1970486111111 5.11681547619047  24.4574652777778 5.44196428571429  24.6744791666667 5.85267857142857  C 24.8914930555556 6.26339285714286  25 6.63988095238095  25 6.98214285714286  L 25 21.7678571428571  C 25 22.110119047619  24.8480902777778 22.4010416666667  24.5442708333333 22.640625  C 24.2404513888889 22.8802083333333  23.8715277777778 23  23.4375 23  L 1.5625 23  C 1.12847222222222 23  0.759548611111111 22.8802083333333  0.455729166666667 22.640625  C 0.151909722222222 22.4010416666667  0 22.110119047619  0 21.7678571428571  L 0 1.23214285714286  C 0 0.889880952380952  0.151909722222222 0.598958333333332  0.455729166666667 0.359375  C 0.759548611111111 0.119791666666668  1.12847222222222 0  1.5625 0  L 16.1458333333333 0  C 16.5798611111111 0  17.0572916666667 0.0855654761904772  17.578125 0.256696428571429  C 18.0989583333333 0.427827380952381  18.5112847222222 0.633184523809523  18.8151041666667 0.872767857142858  Z M 17.333984375 2.02790178571429  C 17.2037760416667 1.92522321428571  16.9813368055556 1.83110119047619  16.6666666666667 1.74553571428571  L 16.6666666666667 6.57142857142857  L 22.7864583333333 6.57142857142857  C 22.6779513888889 6.32328869047619  22.55859375 6.14787946428571  22.4283854166667 6.04520089285714  L 17.333984375 2.02790178571429  Z M 2 21  L 23 21  L 23 8.21428571428571  L 16.1458333333333 8.21428571428571  C 15.7118055555556 8.21428571428571  15.3428819444444 8.09449404761905  15.0390625 7.85491071428571  C 14.7352430555556 7.61532738095238  14.5833333333333 7.32440476190476  14.5833333333333 6.98214285714286  L 14.5833333333333 2  L 2 2  L 2 21  Z M 9.521484375 10.9994419642857  C 9.69509548611111 10.87109375  9.88498263888889 10.8411458333333  10.0911458333333 10.9095982142857  C 10.3081597222222 10.9780505952381  10.4166666666667 11.1063988095238  10.4166666666667 11.2946428571429  L 10.4166666666667 18.2767857142857  C 10.4166666666667 18.4650297619048  10.3081597222222 18.5933779761905  10.0911458333333 18.6618303571429  C 10.0043402777778 18.678943452381  9.93923611111111 18.6875  9.89583333333333 18.6875  C 9.765625 18.6875  9.64084201388889 18.6489955357143  9.521484375 18.5719866071429  L 6.81966145833333 16.4285714285714  L 4.6875 16.4285714285714  C 4.53559027777778 16.4285714285714  4.41080729166667 16.3900669642857  4.31315104166667 16.3130580357143  C 4.21549479166667 16.2360491071429  4.16666666666667 16.1376488095238  4.16666666666667 16.0178571428571  L 4.16666666666667 13.5535714285714  C 4.16666666666667 13.4337797619048  4.21549479166667 13.3353794642857  4.31315104166667 13.2583705357143  C 4.41080729166667 13.1813616071429  4.53559027777778 13.1428571428571  4.6875 13.1428571428571  L 6.81966145833333 13.1428571428571  L 9.521484375 10.9994419642857  Z M 16.2272135416667 19.5602678571429  C 16.4225260416667 19.6886160714286  16.6395399305556 19.7527901785714  16.8782552083333 19.7527901785714  C 17.2146267361111 19.7527901785714  17.4858940972222 19.6501116071429  17.6920572916667 19.4447544642857  C 19.091796875 18.0842633928571  19.7916666666667 16.53125  19.7916666666667 14.7857142857143  C 19.7916666666667 13.0401785714286  19.091796875 11.4871651785714  17.6920572916667 10.1266741071429  C 17.5184461805556 9.94698660714286  17.28515625 9.84430803571429  16.9921875 9.81863839285714  C 16.69921875 9.79296875  16.4442274305556 9.85286458333333  16.2272135416667 9.99832589285714  C 15.9993489583333 10.143787202381  15.8718532986111 10.3298921130952  15.8447265625 10.556640625  C 15.8175998263889 10.7833891369048  15.8962673611111 10.9866071428571  16.0807291666667 11.1662946428571  C 17.1657986111111 12.21875  17.7083333333333 13.4252232142857  17.7083333333333 14.7857142857143  C 17.7083333333333 16.1462053571429  17.1657986111111 17.3526785714286  16.0807291666667 18.4051339285714  C 15.8962673611111 18.5848214285714  15.8175998263889 18.7880394345238  15.8447265625 19.0147879464286  C 15.8718532986111 19.2415364583333  15.9993489583333 19.4233630952381  16.2272135416667 19.5602678571429  Z M 12.7278645833333 17.6350446428571  C 12.9448784722222 17.780505952381  13.18359375 17.8532366071429  13.4440104166667 17.8532366071429  C 13.7369791666667 17.8532366071429  13.9919704861111 17.7676711309524  14.208984375 17.5965401785714  C 15.1529947916667 16.80078125  15.625 15.8638392857143  15.625 14.7857142857143  C 15.625 13.7075892857143  15.1529947916667 12.7706473214286  14.208984375 11.9748883928571  C 14.013671875 11.8123139880952  13.76953125 11.7267485119048  13.4765625 11.7181919642857  C 13.18359375 11.7096354166667  12.9340277777778 11.7823660714286  12.7278645833333 11.9363839285714  C 12.5217013888889 12.0904017857143  12.4131944444444 12.2807849702381  12.40234375 12.5075334821429  C 12.3914930555556 12.7342819940476  12.4891493055556 12.9332217261905  12.6953125 13.1043526785714  C 13.2595486111111 13.5920758928571  13.5416666666667 14.1525297619048  13.5416666666667 14.7857142857143  C 13.5416666666667 15.4188988095238  13.2595486111111 15.9793526785714  12.6953125 16.4670758928571  C 12.4891493055556 16.6382068452381  12.3914930555556 16.837146577381  12.40234375 17.0638950892857  C 12.4131944444444 17.2906436011905  12.5217013888889 17.4810267857143  12.7278645833333 17.6350446428571  Z " fill-rule="nonzero" fill="#ffffff" stroke="none" transform="matrix(1 0 0 1 144 360 )" />
  </g>
</svg>