<?xml version="1.0" encoding="utf-8"?>
<svg version="1.1" xmlns:xlink="http://www.w3.org/1999/xlink" width="45px" height="45px" xmlns="http://www.w3.org/2000/svg">
  <g transform="matrix(1 0 0 1 -257 -403 )">
    <path d="M 9.43327239488117 38.0432136335971  C 9.78062157221206 37.696287279367  9.95429616087751 37.2854534388314  9.95429616087751 36.8107121119903  C 9.95429616087751 36.3359707851491  9.78062157221206 35.9251369446135  9.43327239488117 35.5782105903834  C 9.08592321755027 35.2312842361534  8.6745886654479 35.0578210590383  8.19926873857404 35.0578210590383  C 7.72394881170018 35.0578210590383  7.31261425959781 35.2312842361534  6.96526508226691 35.5782105903834  C 6.61791590493602 35.9251369446135  6.44424131627057 36.3359707851491  6.44424131627057 36.8107121119903  C 6.44424131627057 37.2854534388314  6.61791590493602 37.696287279367  6.96526508226691 38.0432136335971  C 7.31261425959781 38.3901399878271  7.72394881170018 38.5636031649422  8.19926873857404 38.5636031649422  C 8.6745886654479 38.5636031649422  9.08592321755027 38.3901399878271  9.43327239488117 38.0432136335971  Z M 22.8564899451554 22.1713329275715  C 24.2367458866545 23.549908703591  25.8226691042048 24.5952525867316  27.6142595978062 25.3073645769933  L 8.91224862888483 43.9866098600122  C 8.23583180987203 44.6622032866707  7.41316270566728 45  6.44424131627057 45  C 5.49360146252285 45  4.6617915904936 44.6622032866707  3.94881170018282 43.9866098600122  L 1.04204753199269 41.0286062081558  C 0.347349177330896 40.3712720632988  0 39.5496043822276  0 38.5636031649422  C 0 37.5958612294583  0.347349177330896 36.7650639074863  1.04204753199269 36.0712111990262  L 19.7166361974406 17.4193548387097  C 20.4296160877514 19.2087644552648  21.4762340036563 20.792757151552  22.8564899451554 22.1713329275715  Z M 44.7669104204753 12.7084601339014  C 44.9223034734918 12.8910529519172  45 13.119293974437  45 13.3931832014607  C 45 14.1052951917225  44.7897623400366 15.0730371272063  44.3692870201097 16.2964090079124  C 43.5100548446069 18.7431527693244  42.0063985374772 20.7288496652465  39.8583180987203 22.2534996956786  C 37.7102376599634 23.7781497261108  35.3473491773309 24.5404747413268  32.7696526508227 24.5404747413268  C 29.3875685557587 24.5404747413268  26.4945155393053 23.3399269628728  24.0904936014625 20.9388314059647  C 21.6864716636197 18.5377358490566  20.4844606946984 15.6482045039562  20.4844606946984 12.2702373706634  C 20.4844606946984 8.89227023737066  21.6864716636197 6.00273889227024  24.0904936014625 3.60164333536214  C 26.4945155393053 1.20054777845404  29.3875685557587 0  32.7696526508227 0  C 33.8299817184644 0  34.9405850091408 0.150639074863058  36.1014625228519 0.451917224589168  C 37.2623400365631 0.753195374315278  38.2449725776965 1.17772367620207  39.0493601462523 1.72550213024955  C 39.3418647166362 1.92635423006695  39.4881170018282 2.1819841752891  39.4881170018282 2.49239196591601  C 39.4881170018282 2.80279975654291  39.3418647166362 3.05842970176506  39.0493601462523 3.25928180158247  L 31.0146252285192 7.88800973828363  L 31.0146252285192 14.0231284236153  L 36.3071297989031 16.9537431527693  C 36.3985374771481 16.8989653073646  37.1206581352834 16.4561777236762  38.473491773309 15.6253804017042  C 39.8263254113346 14.7945830797322  41.0648994515539 14.0550821667681  42.1892138939671 13.4068776628119  C 43.3135283363803 12.7586731588557  43.9579524680073 12.4345709068777  44.1224862888483 12.4345709068777  C 44.3967093235832 12.4345709068777  44.6115173674589 12.5258673158856  44.7669104204753 12.7084601339014  Z " fill-rule="nonzero" fill="#068a7a" stroke="none" transform="matrix(1 0 0 1 257 403 )" />
  </g>
</svg>