<?xml version="1.0" encoding="utf-8"?>
<svg version="1.1" xmlns:xlink="http://www.w3.org/1999/xlink" width="45px" height="45px" xmlns="http://www.w3.org/2000/svg">
  <g transform="matrix(1 0 0 1 -255 -406 )">
    <path d="M 29.23828125 28.76953125  C 31.03515625 27.08984375  33.1640625 26.25  35.625 26.25  C 38.22265625 26.25  40.4345703125 27.1630859375  42.2607421875 28.9892578125  C 44.0869140625 30.8154296875  45 33.02734375  45 35.625  C 45 38.22265625  44.0869140625 40.4345703125  42.2607421875 42.2607421875  C 40.4345703125 44.0869140625  38.22265625 45  35.625 45  C 33.02734375 45  30.8154296875 44.0869140625  28.9892578125 42.2607421875  C 27.1630859375 40.4345703125  26.25 38.22265625  26.25 35.625  C 26.25 35.390625  26.26953125 35.05859375  26.30859375 34.62890625  L 15.76171875 29.35546875  C 13.96484375 31.03515625  11.8359375 31.875  9.375 31.875  C 6.77734375 31.875  4.5654296875 30.9619140625  2.7392578125 29.1357421875  C 0.9130859375 27.3095703125  0 25.09765625  0 22.5  C 0 19.90234375  0.9130859375 17.6904296875  2.7392578125 15.8642578125  C 4.5654296875 14.0380859375  6.77734375 13.125  9.375 13.125  C 11.8359375 13.125  13.96484375 13.96484375  15.76171875 15.64453125  L 26.30859375 10.37109375  C 26.26953125 9.94140625  26.25 9.609375  26.25 9.375  C 26.25 6.77734375  27.1630859375 4.5654296875  28.9892578125 2.7392578125  C 30.8154296875 0.913085937499997  33.02734375 0  35.625 0  C 38.22265625 0  40.4345703125 0.913085937499997  42.2607421875 2.7392578125  C 44.0869140625 4.5654296875  45 6.77734375  45 9.375  C 45 11.97265625  44.0869140625 14.1845703125  42.2607421875 16.0107421875  C 40.4345703125 17.8369140625  38.22265625 18.75  35.625 18.75  C 33.1640625 18.75  31.03515625 17.91015625  29.23828125 16.23046875  L 18.69140625 21.50390625  C 18.73046875 21.93359375  18.75 22.265625  18.75 22.5  C 18.75 22.734375  18.73046875 23.06640625  18.69140625 23.49609375  L 29.23828125 28.76953125  Z " fill-rule="nonzero" fill="#068a7a" stroke="none" transform="matrix(1 0 0 1 255 406 )" />
  </g>
</svg>