<?xml version="1.0" encoding="utf-8"?>
<svg version="1.1" xmlns:xlink="http://www.w3.org/1999/xlink" width="45px" height="45px" xmlns="http://www.w3.org/2000/svg">
  <g transform="matrix(1 0 0 1 -255 -245 )">
    <path d="M 18.0552455357143 28.9285714285714  L 15.29296875 20.4910714285714  L 22.5 15.2678571428571  L 29.70703125 20.4910714285714  L 26.9698660714286 28.9285714285714  L 18.0552455357143 28.9285714285714  Z M 13.7611607142857 1.78292410714286  C 16.5401785714286 0.594308035714285  19.453125 0  22.5 0  C 25.546875 0  28.4598214285714 0.594308035714285  31.2388392857143 1.78292410714286  C 34.0178571428571 2.97154017857143  36.4118303571429 4.5703125  38.4207589285714 6.57924107142857  C 40.4296875 8.58816964285714  42.0284598214286 10.9821428571429  43.2170758928571 13.7611607142857  C 44.4056919642857 16.5401785714286  45 19.453125  45 22.5  C 45 25.546875  44.4056919642857 28.4598214285714  43.2170758928571 31.2388392857143  C 42.0284598214286 34.0178571428571  40.4296875 36.4118303571429  38.4207589285714 38.4207589285714  C 36.4118303571429 40.4296875  34.0178571428571 42.0284598214286  31.2388392857143 43.2170758928571  C 28.4598214285714 44.4056919642857  25.546875 45  22.5 45  C 19.453125 45  16.5401785714286 44.4056919642857  13.7611607142857 43.2170758928571  C 10.9821428571429 42.0284598214286  8.58816964285714 40.4296875  6.57924107142857 38.4207589285714  C 4.5703125 36.4118303571429  2.97154017857143 34.0178571428571  1.78292410714286 31.2388392857143  C 0.594308035714286 28.4598214285714  0 25.546875  0 22.5  C 0 19.453125  0.594308035714286 16.5401785714286  1.78292410714286 13.7611607142857  C 2.97154017857143 10.9821428571429  4.5703125 8.58816964285714  6.57924107142857 6.57924107142857  C 8.58816964285714 4.5703125  10.9821428571429 2.97154017857143  13.7611607142857 1.78292410714286  Z M 37.2907366071429 30.5859375  L 38.0440848214286 33.9006696428571  C 40.5385044642857 30.5022321428571  41.7857142857143 26.7020089285714  41.7857142857143 22.5  L 41.7857142857143 22.4246651785714  L 39.2243303571429 24.6595982142857  L 33.1975446428571 19.0345982142857  L 34.7795758928571 10.9235491071429  L 38.14453125 11.2248883928571  C 35.6333705357143 7.77622767857142  32.3772321428571 5.41573660714286  28.3761160714286 4.14341517857143  L 29.70703125 7.25725446428571  L 22.5 11.25  L 15.29296875 7.25725446428571  L 16.6238839285714 4.14341517857143  C 12.6227678571429 5.41573660714286  9.36662946428572 7.77622767857142  6.85546875 11.2248883928571  L 10.2455357142857 10.9235491071429  L 11.8024553571429 19.0345982142857  L 5.77566964285714 24.6595982142857  L 3.21428571428571 22.4246651785714  L 3.21428571428571 22.5  C 3.21428571428571 26.7020089285714  4.46149553571429 30.5022321428571  6.95591517857143 33.9006696428571  L 7.70926339285714 30.5859375  L 15.8956473214286 31.5904017857143  L 19.3861607142857 39.0736607142857  L 16.4732142857143 40.8063616071429  C 18.4319196428571 41.4592633928571  20.4408482142857 41.7857142857143  22.5 41.7857142857143  C 24.5591517857143 41.7857142857143  26.5680803571429 41.4592633928571  28.5267857142857 40.8063616071429  L 25.6138392857143 39.0736607142857  L 29.1043526785714 31.5904017857143  L 37.2907366071429 30.5859375  Z " fill-rule="nonzero" fill="#068a7a" stroke="none" transform="matrix(1 0 0 1 255 245 )" />
  </g>
</svg>