<?xml version="1.0" standalone="no"?>
<!DOCTYPE svg PUBLIC "-//W3C//DTD SVG 20010904//EN"
 "http://www.w3.org/TR/2001/REC-SVG-20010904/DTD/svg10.dtd">
<svg version="1.0" xmlns="http://www.w3.org/2000/svg"
 width="512.000000pt" height="512.000000pt" viewBox="0 0 512.000000 512.000000"
 preserveAspectRatio="xMidYMid meet">
<g transform="translate(0.000000,512.000000) scale(0.100000,-0.100000)"
fill="#000000" stroke="none">
<path d="M430 5063 c-193 -33 -355 -171 -410 -350 -20 -64 -20 -90 -20 -2109
l0 -2044 210 0 210 0 0 -255 0 -255 1765 0 1765 0 0 1092 0 1092 549 551 c515
515 552 555 583 620 31 66 33 76 33 180 0 103 -2 114 -32 177 -38 81 -155 204
-229 241 -122 60 -252 63 -369 8 -61 -28 -96 -58 -302 -263 l-233 -232 0 271
0 270 53 11 c164 33 304 155 368 320 14 37 24 88 27 145 8 154 -40 279 -150
389 -59 59 -101 85 -198 122 l-55 21 -1770 1 c-974 1 -1781 0 -1795 -3z m159
-168 c183 -48 298 -244 247 -419 -46 -156 -163 -248 -333 -262 l-83 -7 0
-1743 0 -1744 -135 0 -135 0 2 1958 3 1957 31 65 c78 162 238 239 403 195z
m3449 -19 c42 -19 79 -47 112 -83 166 -181 99 -461 -133 -557 l-52 -21 -1548
-3 -1549 -2 30 37 c97 124 132 288 93 437 -20 76 -62 157 -104 204 l-21 22
1555 -2 1554 -3 63 -29z m-248 -1173 l0 -348 -157 -157 -158 -158 -1282 0
-1283 0 0 -80 0 -80 1202 0 1203 0 -150 -150 -150 -150 -1052 0 -1053 0 0 -80
0 -80 972 0 973 0 -150 -150 -150 -150 -822 0 -823 0 0 -75 0 -75 746 0 c624
0 745 -2 735 -13 -6 -8 -25 -61 -41 -118 -17 -57 -36 -119 -41 -136 l-11 -33
-694 0 -694 0 0 -80 0 -80 670 0 670 0 -5 -22 c-3 -13 -23 -79 -43 -148 l-38
-125 -627 -3 -627 -2 0 -80 0 -80 1310 0 1310 0 0 80 0 80 -417 1 -418 0 165
50 165 49 100 100 100 100 153 0 152 0 0 80 0 79 -70 3 -70 3 200 200 200 200
0 -933 0 -932 -1605 0 -1605 0 0 1920 0 1920 1605 0 1605 0 0 -347z m975 163
c59 -28 144 -113 176 -175 47 -92 20 -218 -65 -300 l-32 -31 -204 205 -205
205 46 46 c25 25 63 51 85 59 62 22 141 19 199 -9z m-237 -419 l202 -202 -875
-875 -875 -875 -205 205 -205 205 872 872 c480 480 875 873 878 873 3 0 96
-91 208 -203z m-1708 -2027 c0 -6 -461 -142 -466 -138 -2 3 108 385 132 457 3
10 60 -40 169 -149 91 -91 165 -167 165 -170z"/>
<path d="M2770 4740 l0 -80 95 0 95 0 0 80 0 80 -95 0 -95 0 0 -80z"/>
<path d="M3160 4741 l0 -81 371 0 c314 0 376 -2 404 -15 42 -20 59 -54 52
-100 -6 -35 -6 -35 63 -70 69 -35 69 -35 81 -14 21 40 23 135 4 185 -23 61
-79 122 -135 148 -43 20 -64 21 -442 24 l-398 3 0 -80z"/>
<path d="M910 3415 l0 -75 1310 0 1310 0 0 75 0 75 -1310 0 -1310 0 0 -75z"/>
<path d="M910 720 l0 -80 1310 0 1310 0 0 80 0 80 -1310 0 -1310 0 0 -80z"/>
<path d="M4342 3397 c-28 -29 -52 -57 -52 -63 0 -5 18 -28 40 -49 l40 -39
-150 -151 -150 -150 58 -58 57 -57 203 203 c111 111 202 207 202 212 0 6 -44
54 -98 108 l-98 97 -52 -53z"/>
<path d="M3925 2800 l-50 -50 58 -57 57 -58 50 50 c27 27 50 54 50 60 0 13
-92 105 -106 105 -5 0 -32 -23 -59 -50z"/>
</g>
</svg>
