<?xml version="1.0" encoding="utf-8"?>
<svg version="1.1" xmlns:xlink="http://www.w3.org/1999/xlink" width="34px" height="30px" xmlns="http://www.w3.org/2000/svg">
  <g transform="matrix(1 0 0 1 -76 -397 )">
    <path d="M 15.8565022421525 22.5  L 16.9237668161435 22.5  L 19.1345291479821 20.0284090909091  L 16.237668161435 16.7897727272727  L 14.0269058295964 19.2613636363636  L 14.0269058295964 20.4545454545455  L 15.8565022421525 20.4545454545455  L 15.8565022421525 22.5  Z M 25.2903587443946 7.86221590909091  C 25.5063527653214 7.62073863636363  25.5127055306428 7.38636363636363  25.3094170403587 7.15909090909091  C 25.1061285500747 6.93181818181818  24.8964872944694 6.93892045454545  24.6804932735426 7.18039772727273  L 18.0100896860987 14.6377840909091  C 17.7940956651719 14.8792613636364  17.7877428998505 15.1136363636364  17.9910313901345 15.3409090909091  C 18.1943198804185 15.5681818181818  18.4039611360239 15.5610795454545  18.6199551569507 15.3196022727273  L 25.2903587443946 7.86221590909091  Z M 26.4529147982063 19.1974431818182  C 26.7070254110613 19.3110795454545  26.8340807174888 19.5170454545455  26.8340807174888 19.8153409090909  L 26.8340807174888 23.8636363636364  C 26.8340807174888 25.5539772727273  26.2972720478326 26.9992897727273  25.2236547085202 28.1995738636364  C 24.1500373692078 29.3998579545455  22.8572496263079 30  21.3452914798206 30  L 5.48878923766816 30  C 3.97683109118087 30  2.68404334828102 29.3998579545455  1.61042600896861 28.1995738636364  C 0.536808669656203 26.9992897727273  0 25.5539772727273  0 23.8636363636364  L 0 6.13636363636364  C 0 4.44602272727272  0.536808669656203 3.00071022727273  1.61042600896861 1.80042613636364  C 2.68404334828102 0.600142045454543  3.97683109118087 0  5.48878923766816 0  L 21.3452914798206 0  C 22.1457399103139 0  22.8890134529148 0.177556818181817  23.5751121076233 0.532670454545453  C 23.7656950672646 0.632102272727271  23.8800448430493 0.795454545454545  23.9181614349776 1.02272727272727  C 23.9562780269058 1.26420454545454  23.8991031390135 1.47017045454545  23.7466367713004 1.640625  L 22.8127802690583 2.68465909090909  C 22.6349028400598 2.88352272727273  22.4316143497758 2.94034090909091  22.2029147982063 2.85511363636364  C 21.910687593423 2.76988636363636  21.6248131539611 2.72727272727273  21.3452914798206 3  L 5.48878923766816 3  C 4.65022421524664 2.72727272727273  3.93236173393124 3.06107954545454  3.33520179372197 3.72869318181818  C 2.73804185351271 4.39630681818182  2.43946188340807 5.19886363636364  3 6.13636363636364  L 3 23.8636363636364  C 2.43946188340807 24.8011363636364  2.73804185351271 25.6036931818182  3.33520179372197 26.2713068181818  C 3.93236173393124 26.9389204545455  4.65022421524664 27.2727272727273  5.48878923766816 27  L 21.3452914798206 27  C 22.1838565022422 27.2727272727273  22.9017189835575 26.9389204545455  23.4988789237668 26.2713068181818  C 24.0960388639761 25.6036931818182  24.3946188340807 24.8011363636364  24.3946188340807 23.8636363636364  L 24.3946188340807 21.1789772727273  C 24.3946188340807 20.9943181818182  24.4517937219731 20.8380681818182  24.5661434977578 20.7102272727273  L 25.7858744394619 19.3465909090909  C 25.9764573991031 19.1335227272727  26.1988041853513 19.0838068181818  26.4529147982063 19.1974431818182  Z M 12.1973094170404 18.4090909090909  L 25.0044843049327 4.09090909090909  L 30.4932735426009 10.2272727272727  L 17.6860986547085 24.5454545454545  L 12.1973094170404 24.5454545454545  L 12.1973094170404 18.4090909090909  Z M 34 5.45454545454545  C 34 6.02272727272727  33.8221225710015 6.50568181818182  33.4663677130045 6.90340909090909  L 31.7130044843049 8.86363636363636  L 26.2242152466368 2.72727272727273  L 27.9775784753363 0.767045454545453  C 28.3333333333333 0.369318181818179  28.7653213751868 0.170454545454547  29.2735426008969 0.170454545454547  C 29.7817638266069 0.170454545454547  30.2137518684604 0.369318181818179  30.5695067264574 0.767045454545453  L 33.4663677130045 4.00568181818182  C 33.8221225710015 4.40340909090909  34 4.88636363636363  34 5.45454545454545  Z " fill-rule="nonzero" fill="#000000" stroke="none" transform="matrix(1 0 0 1 76 397 )" />
  </g>
</svg>