<?xml version="1.0" encoding="utf-8"?>
<svg version="1.1" xmlns:xlink="http://www.w3.org/1999/xlink" width="30px" height="30px" xmlns="http://www.w3.org/2000/svg">
  <g transform="matrix(1 0 0 1 -76 -310 )">
    <path d="M 29.375 2.14285714285714  L 27.5 2.14285714285714  C 27.5 5.05580357142857  26.806640625 7.63113839285714  25.419921875 9.86886160714286  C 24.033203125 12.1065848214286  22.2981770833333 13.8169642857143  20.21484375 15  C 22.2981770833333 16.1830357142857  24.033203125 17.8934151785714  25.419921875 20.1311383928571  C 26.806640625 22.3688616071429  27.5 24.9441964285714  27.5 27.8571428571429  L 29.375 27.8571428571429  C 29.5572916666667 27.8571428571429  29.70703125 27.9073660714286  29.82421875 28.0078125  C 29.94140625 28.1082589285714  30 28.2366071428571  30 28.3928571428571  L 30 29.4642857142857  C 30 29.6205357142857  29.94140625 29.7488839285714  29.82421875 29.8493303571429  C 29.70703125 29.9497767857143  29.5572916666667 30  29.375 30  L 0.625 30  C 0.442708333333333 30  0.29296875 29.9497767857143  0.17578125 29.8493303571429  C 0.05859375 29.7488839285714  0 29.6205357142857  0 29.4642857142857  L 0 28.3928571428571  C 0 28.2366071428571  0.05859375 28.1082589285714  0.17578125 28.0078125  C 0.29296875 27.9073660714286  0.442708333333333 27.8571428571429  0.625 27.8571428571429  L 2.5 27.8571428571429  C 2.5 24.9441964285714  3.193359375 22.3688616071429  4.580078125 20.1311383928571  C 5.966796875 17.8934151785714  7.70182291666667 16.1830357142857  9.78515625 15  C 7.70182291666667 13.8169642857143  5.966796875 12.1065848214286  4.580078125 9.86886160714286  C 3.193359375 7.63113839285714  2.5 5.05580357142857  2.5 2.14285714285714  L 0.625 2.14285714285714  C 0.442708333333333 2.14285714285714  0.29296875 2.09263392857143  0.17578125 1.9921875  C 0.05859375 1.89174107142857  0 1.76339285714286  0 1.60714285714286  L 0 0.535714285714287  C 0 0.379464285714283  0.05859375 0.251116071428571  0.17578125 0.150669642857142  C 0.29296875 0.0502232142857129  0.442708333333333 0  0.625 0  L 29.375 0  C 29.5572916666667 0  29.70703125 0.0502232142857129  29.82421875 0.150669642857142  C 29.94140625 0.251116071428571  30 0.379464285714283  30 0.535714285714287  L 30 1.60714285714286  C 30 1.76339285714286  29.94140625 1.89174107142857  29.82421875 1.9921875  C 29.70703125 2.09263392857143  29.5572916666667 2.14285714285714  29.375 2.14285714285714  Z M 23.33984375 9  C 24.4466145833333 6.58482142857143  25 4.44196428571428  25 2.14285714285714  L 5 2.14285714285714  C 5 4.44196428571428  5.55338541666667 6.58482142857143  6.66015625 9  L 23.33984375 9  Z M 6.11328125 22  L 23.88671875 22  C 23.18359375 20.9263392857143  22.236328125 19.5786830357143  21.044921875 18.45703125  C 19.853515625 17.3353794642857  18.5872395833333 16.5401785714286  17.24609375 16.0714285714286  L 12.75390625 16.0714285714286  C 11.4127604166667 16.5401785714286  10.146484375 17.3353794642857  8.955078125 18.45703125  C 7.763671875 19.5786830357143  6.81640625 20.9263392857143  6.11328125 22  Z " fill-rule="nonzero" fill="#068a7a" stroke="none" transform="matrix(1 0 0 1 76 310 )" />
  </g>
</svg>