<?xml version="1.0" encoding="utf-8"?>
<svg version="1.1" xmlns:xlink="http://www.w3.org/1999/xlink" width="35px" height="35px" xmlns="http://www.w3.org/2000/svg">
  <g transform="matrix(1 0 0 1 -88 -605 )">
    <path d="M 11.767578125 12.5211588541667  C 12.255859375 13.0908203125  12.5 13.7782118055556  12.5 14.5833333333333  C 12.5 15.3884548611111  12.255859375 16.0758463541667  11.767578125 16.6455078125  C 11.279296875 17.2151692708333  10.6901041666667 17.5  10 17.5  C 9.30989583333333 17.5  8.720703125 17.2151692708333  8.232421875 16.6455078125  C 7.744140625 16.0758463541667  7.5 15.3884548611111  7.5 14.5833333333333  C 7.5 13.7782118055556  7.744140625 13.0908203125  8.232421875 12.5211588541667  C 8.720703125 11.9514973958333  9.30989583333333 11.6666666666667  10 11.6666666666667  C 10.6901041666667 11.6666666666667  11.279296875 11.9514973958333  11.767578125 12.5211588541667  Z M 19.267578125 12.5211588541667  C 19.755859375 13.0908203125  20 13.7782118055556  20 14.5833333333333  C 20 15.3884548611111  19.755859375 16.0758463541667  19.267578125 16.6455078125  C 18.779296875 17.2151692708333  18.1901041666667 17.5  17.5 17.5  C 16.8098958333333 17.5  16.220703125 17.2151692708333  15.732421875 16.6455078125  C 15.244140625 16.0758463541667  15 15.3884548611111  15 14.5833333333333  C 15 13.7782118055556  15.244140625 13.0908203125  15.732421875 12.5211588541667  C 16.220703125 11.9514973958333  16.8098958333333 11.6666666666667  17.5 11.6666666666667  C 18.1901041666667 11.6666666666667  18.779296875 11.9514973958333  19.267578125 12.5211588541667  Z M 26.767578125 12.5211588541667  C 27.255859375 13.0908203125  27.5 13.7782118055556  27.5 14.5833333333333  C 27.5 15.3884548611111  27.255859375 16.0758463541667  26.767578125 16.6455078125  C 26.279296875 17.2151692708333  25.6901041666667 17.5  25 17.5  C 24.3098958333333 17.5  23.720703125 17.2151692708333  23.232421875 16.6455078125  C 22.744140625 16.0758463541667  22.5 15.3884548611111  22.5 14.5833333333333  C 22.5 13.7782118055556  22.744140625 13.0908203125  23.232421875 12.5211588541667  C 23.720703125 11.9514973958333  24.3098958333333 11.6666666666667  25 11.6666666666667  C 25.6901041666667 11.6666666666667  26.279296875 11.9514973958333  26.767578125 12.5211588541667  Z M 24.951171875 4.50032552083333  C 22.6399739583333 3.44455295138889  20.15625 2.91666666666667  17.5 2.91666666666667  C 14.84375 2.91666666666667  12.3600260416667 3.44455295138889  10.048828125 4.50032552083333  C 7.73763020833333 5.55609809027778  5.90169270833333 6.98025173611111  4.541015625 8.77278645833333  C 3.18033854166667 10.5653211805556  2.5 12.5021701388889  2.5 14.5833333333333  C 2.5 16.2847222222222  2.96549479166667 17.9063585069444  3.896484375 19.4482421875  C 4.82747395833333 20.9901258680556  6.13932291666667 22.3231336805556  7.83203125 23.447265625  L 9.53125 24.5865885416667  L 9.00390625 26.7740885416667  C 8.69140625 28.1564670138889  8.23567708333333 29.462890625  7.63671875 30.693359375  C 9.61588541666667 29.736328125  11.40625 28.4375  13.0078125 26.796875  L 13.84765625 25.9309895833333  L 14.9609375 26.0677083333333  C 15.859375 26.1892361111111  16.7057291666667 26.25  17.5 26.25  C 20.15625 26.25  22.6399739583333 25.7221137152778  24.951171875 24.6663411458333  C 27.2623697916667 23.6105685763889  29.0983072916667 22.1864149305556  30.458984375 20.3938802083333  C 31.8196614583333 18.6013454861111  32.5 16.6644965277778  32.5 14.5833333333333  C 32.5 12.5021701388889  31.8196614583333 10.5653211805556  30.458984375 8.77278645833333  C 29.0983072916667 6.98025173611111  27.2623697916667 5.55609809027778  24.951171875 4.50032552083333  Z M 33.61328125 8.9208984375  C 34.5377604166667 10.7210286458333  35 12.6085069444444  35 14.5833333333333  C 35 17.2265625  34.21875 19.6685112847222  32.65625 21.9091796875  C 31.09375 24.1498480902778  28.9713541666667 25.9195963541667  26.2890625 27.2184244791667  C 23.6067708333333 28.5172526041667  20.6770833333333 29.1666666666667  17.5 29.1666666666667  C 16.5885416666667 29.1666666666667  15.64453125 29.1059027777778  14.66796875 28.984375  C 12.08984375 31.6427951388889  9.09505208333333 33.4809027777778  5.68359375 34.4986979166667  C 5.04557291666667 34.7113715277778  4.30338541666667 34.8784722222222  3.45703125 35  L 3.359375 35  C 3.1640625 35  2.98828125 34.9202473958333  2.83203125 34.7607421875  C 2.67578125 34.6012369791667  2.57161458333333 34.3923611111111  2.51953125 34.1341145833333  L 2.51953125 34.111328125  C 2.48046875 34.0505642361111  2.47721354166667 33.9594184027778  2.509765625 33.837890625  C 2.54231770833333 33.7163628472222  2.55533854166667 33.6404079861111  2.548828125 33.6100260416667  C 2.54231770833333 33.5796440972222  2.57161458333333 33.5074869791667  2.63671875 33.3935546875  L 2.75390625 33.1884765625  C 2.75390625 33.1884765625  2.79947916666667 33.1239149305556  2.890625 32.9947916666667  C 2.98177083333333 32.8656684027778  3.03385416666667 32.7973090277778  3.046875 32.7897135416667  C 3.13802083333333 32.6681857638889  3.33984375 32.4061414930556  3.65234375 32.0035807291667  C 3.96484375 31.6010199652778  4.189453125 31.3123914930556  4.326171875 31.1376953125  C 4.462890625 30.9629991319444  4.66471354166667 30.6629774305556  4.931640625 30.2376302083333  C 5.19856770833333 29.8122829861111  5.41015625 29.4249131944444  5.56640625 29.0755208333333  C 5.72265625 28.7261284722222  5.8984375 28.2779947916667  6.09375 27.7311197916667  C 6.2890625 27.1842447916667  6.45833333333333 26.6069878472222  6.6015625 25.9993489583333  C 4.55729166666667 24.6473524305556  2.94596354166667 22.9763454861111  1.767578125 20.986328125  C 0.589192708333333 18.9963107638889  0 16.8619791666667  0 14.5833333333333  C 0 12.6085069444444  0.462239583333333 10.7210286458333  1.38671875 8.9208984375  C 2.31119791666667 7.12076822916667  3.5546875 5.56749131944444  5.1171875 4.26106770833333  C 6.6796875 2.95464409722222  8.54166666666667 1.91786024305555  10.703125 1.15071614583333  C 12.8645833333333 0.383572048611109  15.1302083333333 0  17.5 0  C 19.8697916666667 0  22.1354166666667 0.383572048611109  24.296875 1.15071614583333  C 26.4583333333333 1.91786024305555  28.3203125 2.95464409722222  29.8828125 4.26106770833333  C 31.4453125 5.56749131944444  32.6888020833333 7.12076822916667  33.61328125 8.9208984375  Z " fill-rule="nonzero" fill="#068a7a" stroke="none" transform="matrix(1 0 0 1 88 605 )" />
  </g>
</svg>