<?xml version="1.0" encoding="utf-8"?>
<svg version="1.1" xmlns:xlink="http://www.w3.org/1999/xlink" width="46px" height="41px" xmlns="http://www.w3.org/2000/svg">
  <g transform="matrix(1 0 0 1 -255 -431 )">
    <path d="M 12.2666666666667 14.6428571428571  C 12.2666666666667 16.7630208333333  12.9135416666667 18.7154017857143  14.2072916666667 20.5  C 11.6197916666667 20.5762648809524  9.50347222222222 21.5524553571429  7.85833333333333 23.4285714285714  L 4.64791666666667 23.4285714285714  C 3.33819444444444 23.4285714285714  2.23611111111111 23.1196986607143  1.34166666666667 22.501953125  C 0.447222222222222 21.8842075892857  0 20.98046875  0 19.7907366071429  C 0 14.4064360119048  0.990277777777778 11.7142857142857  2.97083333333333 11.7142857142857  C 3.06666666666667 11.7142857142857  3.4140625 11.8744419642857  4.01302083333333 12.1947544642857  C 4.61197916666667 12.5150669642857  5.390625 12.8391927083333  6.34895833333333 13.1671316964286  C 7.30729166666667 13.4950706845238  8.25763888888889 13.6590401785714  9.2 13.6590401785714  C 10.2701388888889 13.6590401785714  11.3322916666667 13.483630952381  12.3864583333333 13.1328125  C 12.3065972222222 13.6971726190476  12.2666666666667 14.2005208333333  12.2666666666667 14.6428571428571  Z M 39.7828125 32.7061941964286  C 39.8387152777778 33.4764694940476  39.8666666666667 34.2658110119048  39.8666666666667 35.07421875  C 39.8666666666667 36.9045758928571  39.2836805555556 38.3497953869048  38.1177083333333 39.4098772321429  C 36.9517361111111 40.4699590773809  35.4024305555556 41  33.4697916666667 41  L 12.5302083333333 41  C 10.5975694444444 41  9.04826388888889 40.4699590773809  7.88229166666667 39.4098772321429  C 6.71631944444445 38.3497953869048  6.13333333333333 36.9045758928571  6.13333333333333 35.07421875  C 6.13333333333333 34.2658110119048  6.16128472222222 33.4764694940476  6.2171875 32.7061941964286  C 6.27309027777778 31.9359188988095  6.38489583333333 31.1046316964286  6.55260416666667 30.2123325892857  C 6.7203125 29.3200334821429  6.93194444444445 28.4925595238095  7.1875 27.7299107142857  C 7.44305555555556 26.9672619047619  7.78645833333333 26.2236793154762  8.21770833333333 25.4991629464286  C 8.64895833333333 24.7746465773809  9.14409722222222 24.1569010416667  9.703125 23.6459263392857  C 10.2621527777778 23.1349516369048  10.9449652777778 22.7269345238095  11.7515625 22.421875  C 12.5581597222222 22.1168154761905  13.4486111111111 21.9642857142857  14.4229166666667 21.9642857142857  C 14.5826388888889 21.9642857142857  14.9260416666667 22.1282552083333  15.453125 22.4561941964286  C 15.9802083333333 22.7841331845238  16.5631944444444 23.1502046130952  17.2020833333333 23.5544084821429  C 17.8409722222222 23.9586123511905  18.6954861111111 24.3246837797619  19.765625 24.6526227678571  C 20.8357638888889 24.9805617559524  21.9138888888889 25.14453125  23 25.14453125  C 24.0861111111111 25.14453125  25.1642361111111 24.9805617559524  26.234375 24.6526227678571  C 27.3045138888889 24.3246837797619  28.1590277777778 23.9586123511905  28.7979166666667 23.5544084821429  C 29.4368055555556 23.1502046130952  30.0197916666667 22.7841331845238  30.546875 22.4561941964286  C 31.0739583333333 22.1282552083333  31.4173611111111 21.9642857142857  31.5770833333333 21.9642857142857  C 32.5513888888889 21.9642857142857  33.4418402777778 22.1168154761905  34.2484375 22.421875  C 35.0550347222222 22.7269345238095  35.7378472222222 23.1349516369048  36.296875 23.6459263392857  C 36.8559027777778 24.1569010416667  37.3510416666667 24.7746465773809  37.7822916666667 25.4991629464286  C 38.2135416666667 26.2236793154762  38.5569444444444 26.9672619047619  38.8125 27.7299107142857  C 39.0680555555556 28.4925595238095  39.2796875 29.3200334821429  39.4473958333333 30.2123325892857  C 39.6151041666667 31.1046316964286  39.7269097222222 31.9359188988095  39.7828125 32.7061941964286  Z M 13.5364583333333 1.71595982142857  C 14.734375 2.85993303571429  15.3333333333333 4.24032738095238  15.3333333333333 5.85714285714286  C 15.3333333333333 7.47395833333333  14.734375 8.85435267857143  13.5364583333333 9.99832589285714  C 12.3385416666667 11.1422991071429  10.8930555555556 11.7142857142857  9.2 11.7142857142857  C 7.50694444444445 11.7142857142857  6.06145833333333 11.1422991071429  4.86354166666667 9.99832589285714  C 3.665625 8.85435267857143  3.06666666666667 7.47395833333333  3.06666666666667 5.85714285714286  C 3.06666666666667 4.24032738095238  3.665625 2.85993303571429  4.86354166666667 1.71595982142857  C 6.06145833333333 0.571986607142859  7.50694444444445 0  9.2 0  C 10.8930555555556 0  12.3385416666667 0.571986607142859  13.5364583333333 1.71595982142857  Z M 29.5046875 8.43108258928571  C 31.3015625 10.1470424107143  32.2 12.2176339285714  32.2 14.6428571428571  C 32.2 17.0680803571429  31.3015625 19.138671875  29.5046875 20.8546316964286  C 27.7078125 22.5705915178571  25.5395833333333 23.4285714285714  23 23.4285714285714  C 20.4604166666667 23.4285714285714  18.2921875 22.5705915178571  16.4953125 20.8546316964286  C 14.6984375 19.138671875  13.8 17.0680803571429  13.8 14.6428571428571  C 13.8 12.2176339285714  14.6984375 10.1470424107143  16.4953125 8.43108258928571  C 18.2921875 6.71512276785714  20.4604166666667 5.85714285714286  23 5.85714285714286  C 25.5395833333333 5.85714285714286  27.7078125 6.71512276785714  29.5046875 8.43108258928571  Z M 43.0291666666667 11.7142857142857  C 45.0097222222222 11.7142857142857  46 14.4064360119048  46 19.7907366071429  C 46 20.98046875  45.5527777777778 21.8842075892857  44.6583333333333 22.501953125  C 43.7638888888889 23.1196986607143  42.6618055555556 23.4285714285714  41.3520833333333 23.4285714285714  L 38.1416666666667 23.4285714285714  C 36.4965277777778 21.5524553571429  34.3802083333333 20.5762648809524  31.7927083333333 20.5  C 33.0864583333333 18.7154017857143  33.7333333333333 16.7630208333333  33.7333333333333 14.6428571428571  C 33.7333333333333 14.2005208333333  33.6934027777778 13.6971726190476  33.6135416666667 13.1328125  C 34.6677083333333 13.483630952381  35.7298611111111 13.6590401785714  36.8 13.6590401785714  C 37.7423611111111 13.6590401785714  38.6927083333333 13.4950706845238  39.6510416666667 13.1671316964286  C 40.609375 12.8391927083333  41.3880208333333 12.5150669642857  41.9869791666667 12.1947544642857  C 42.5859375 11.8744419642857  42.9333333333333 11.7142857142857  43.0291666666667 11.7142857142857  Z M 41.1364583333333 1.71595982142857  C 42.334375 2.85993303571429  42.9333333333333 4.24032738095238  42.9333333333333 5.85714285714286  C 42.9333333333333 7.47395833333333  42.334375 8.85435267857143  41.1364583333333 9.99832589285714  C 39.9385416666667 11.1422991071429  38.4930555555556 11.7142857142857  36.8 11.7142857142857  C 35.1069444444444 11.7142857142857  33.6614583333333 11.1422991071429  32.4635416666667 9.99832589285714  C 31.265625 8.85435267857143  30.6666666666667 7.47395833333333  30.6666666666667 5.85714285714286  C 30.6666666666667 4.24032738095238  31.265625 2.85993303571429  32.4635416666667 1.71595982142857  C 33.6614583333333 0.571986607142859  35.1069444444444 0  36.8 0  C 38.4930555555556 0  39.9385416666667 0.571986607142859  41.1364583333333 1.71595982142857  Z " fill-rule="nonzero" fill="#068a7a" stroke="none" transform="matrix(1 0 0 1 255 431 )" />
  </g>
</svg>