<?xml version="1.0" encoding="utf-8"?>
<svg version="1.1" xmlns:xlink="http://www.w3.org/1999/xlink" width="19px" height="17px" xmlns="http://www.w3.org/2000/svg">
  <g transform="matrix(1 0 0 1 0 -94 )">
    <path d="M 18.1118980169972 0  C 18.4886685552408 0  18.7533050047214 0.156960227272728  18.9058073654391 0.470880681818182  C 19.0583097261568 0.800899621212119  18.9955146364495 1.0826231060606  18.7174220963173 1.31605113636364  L 12.0835694050991 7.26846590909091  L 12.0835694050991 16.2272727272727  C 12.0835694050991 16.5653409090909  11.9086402266289 16.8027935606061  11.5587818696884 16.9396306818182  C 11.4421624173749 16.9798768939394  11.3300283286119 17  11.2223796033994 17  C 10.9801699716714 17  10.778328611898 16.9235321969697  10.6168555240793 16.7705965909091  L 7.17209631728045 13.6796875  C 7.00165250236072 13.5267518939394  6.91643059490085 13.3456439393939  6.91643059490085 13.1363636363636  L 6.91643059490085 7.26846590909091  L 0.28257790368272 1.31605113636364  C 0.00448536355051935 1.0826231060606  -0.0583097261567517 0.800899621212119  0.0941926345609065 0.470880681818182  C 0.246694995278565 0.156960227272728  0.511331444759207 0  0.888101983002833 0  L 18.1118980169972 0  Z " fill-rule="nonzero" fill="#c55a11" stroke="none" transform="matrix(1 0 0 1 0 94 )" />
  </g>
</svg>