<?xml version="1.0" encoding="utf-8"?>
<svg version="1.1" xmlns:xlink="http://www.w3.org/1999/xlink" width="30px" height="30px" xmlns="http://www.w3.org/2000/svg">
  <g transform="matrix(1 0 0 1 -76 -456 )">
    <path d="M 4.62890625 25.0420673076923  C 4.87630208333333 24.8137019230769  5 24.5432692307692  5 24.2307692307692  C 5 23.9182692307692  4.87630208333333 23.6478365384615  4.62890625 23.4194711538462  C 4.38151041666667 23.1911057692308  4.08854166666667 23.0769230769231  3.75 23.0769230769231  C 3.41145833333333 23.0769230769231  3.11848958333333 23.1911057692308  2.87109375 23.4194711538462  C 2.62369791666667 23.6478365384615  2.5 23.9182692307692  2.5 24.2307692307692  C 2.5 24.5432692307692  2.62369791666667 24.8137019230769  2.87109375 25.0420673076923  C 3.11848958333333 25.2704326923077  3.41145833333333 25.3846153846154  3.75 25.3846153846154  C 4.08854166666667 25.3846153846154  4.38151041666667 25.2704326923077  4.62890625 25.0420673076923  Z M 27.080078125 15.3064903846154  C 27.3600260416667 14.7536057692308  27.5 14.2668269230769  27.5 13.8461538461538  C 27.5 13.2331730769231  27.24609375 12.6953125  26.73828125 12.2325721153846  C 26.23046875 11.7698317307692  25.6510416666667 11.5384615384615  25 11.5384615384615  L 18.125 11.5384615384615  C 18.125 10.8413461538462  18.4375 9.8828125  19.0625 8.66286057692308  C 19.6875 7.44290865384615  20 6.47836538461538  20 5.76923076923077  C 20 4.59134615384615  19.7916666666667 3.71995192307692  19.375 3.15504807692308  C 18.9583333333333 2.59014423076923  18.125 2.30769230769231  16.875 2.30769230769231  C 16.5364583333333 2.6201923076923  16.2890625 3.13100961538461  16.1328125 3.84014423076923  C 15.9765625 4.54927884615385  15.7779947916667 5.30348557692307  15.537109375 6.10276442307692  C 15.2962239583333 6.90204326923077  14.9088541666667 7.56009615384615  14.375 8.07692307692308  C 14.0885416666667 8.35336538461538  13.5872395833333 8.90024038461538  12.87109375 9.71754807692308  C 12.8190104166667 9.77764423076923  12.6692708333333 9.95793269230769  12.421875 10.2584134615385  C 12.1744791666667 10.5588942307692  11.9694010416667 10.8052884615385  11.806640625 10.9975961538462  C 11.6438802083333 11.1899038461538  11.4192708333333 11.4453125  11.1328125 11.7638221153846  C 10.8463541666667 12.0823317307692  10.5859375 12.3467548076923  10.3515625 12.5570913461538  C 10.1171875 12.7674278846154  9.86653645833333 12.9807692307692  9.599609375 13.1971153846154  C 9.33268229166667 13.4134615384615  9.072265625 13.5757211538462  8.818359375 13.6838942307692  C 8.564453125 13.7920673076923  8.33333333333334 13.8461538461538  8.125 13.8461538461538  L 8 13.8461538461538  L 8 25.3846153846154  L 8.125 25.3846153846154  C 8.29427083333333 25.3846153846154  8.49934895833333 25.4026442307692  8.740234375 25.4387019230769  C 8.98111979166667 25.4747596153846  9.19596354166667 25.5138221153846  9.384765625 25.5558894230769  C 9.57356770833334 25.5979567307692  9.82096354166667 25.6640625  10.126953125 25.7542067307692  C 10.4329427083333 25.8443509615385  10.6608072916667 25.9134615384615  10.810546875 25.9615384615385  C 10.9602864583333 26.0096153846154  11.19140625 26.0847355769231  11.50390625 26.1868990384615  C 11.81640625 26.2890625  12.0052083333333 26.3521634615385  12.0703125 26.3762019230769  C 14.8177083333333 27.2536057692308  17.0442708333333 27.6923076923077  18.75 27.6923076923077  L 21.11328125 27.6923076923077  C 23.61328125 27.6923076923077  24.86328125 26.6887019230769  24.86328125 24.6814903846154  C 24.86328125 24.3689903846154  24.8307291666667 24.0324519230769  24.765625 23.671875  C 25.15625 23.4795673076923  25.4654947916667 23.1640625  25.693359375 22.7253605769231  C 25.9212239583333 22.2866586538462  26.03515625 21.8449519230769  26.03515625 21.4002403846154  C 26.03515625 20.9555288461538  25.91796875 20.5408653846154  25.68359375 20.15625  C 26.3736979166667 19.5552884615385  26.71875 18.8401442307692  26.71875 18.0108173076923  C 26.71875 17.7103365384615  26.6536458333333 17.3768028846154  26.5234375 17.0102163461538  C 26.3932291666667 16.6436298076923  26.23046875 16.3581730769231  26.03515625 16.1538461538462  C 26.4518229166667 16.1418269230769  26.8001302083333 15.859375  27.080078125 15.3064903846154  Z M 28.515625 10.6009615384615  C 29.5052083333333 11.5144230769231  30 12.5901442307692  30 13.828125  C 30 14.8978365384615  29.6809895833333 15.8774038461538  29.04296875 16.7668269230769  C 29.16015625 17.1634615384615  29.21875 17.578125  29.21875 18.0108173076923  C 29.21875 18.9362980769231  28.9713541666667 19.8016826923077  28.4765625 20.6069711538462  C 28.515625 20.859375  28.53515625 21.1177884615385  28.53515625 21.3822115384615  C 28.53515625 22.5961538461538  28.14453125 23.6658653846154  27.36328125 24.5913461538462  C 27.3763020833333 26.2620192307692  26.8229166666667 27.5811298076923  25.703125 28.5486778846154  C 24.5833333333333 29.5162259615385  23.10546875 30  21.26953125 30  L 20.56640625 30  L 18.75 30  C 17.5 30  16.2662760416667 29.8647836538462  15.048828125 29.5943509615385  C 13.8313802083333 29.3239182692308  12.421875 28.9302884615385  10.8203125 28.4134615384615  C 9.30989583333334 27.9326923076923  8.41145833333333 27.6923076923077  8.125 27.6923076923077  L 2.5 27.6923076923077  C 1.80989583333333 27.6923076923077  1.220703125 27.4669471153846  0.732421875 27.0162259615385  C 0.244140625 26.5655048076923  0 26.0216346153846  0 25.3846153846154  L 0 13.8461538461538  C 0 13.2091346153846  0.244140625 12.6652644230769  0.732421875 12.2145432692308  C 1.220703125 11.7638221153846  1.80989583333333 11.5384615384615  2.5 11.5384615384615  L 7.8515625 11.5384615384615  C 8.3203125 11.25  9.21223958333334 10.3185096153846  10.52734375 8.74399038461539  C 11.2825520833333 7.84254807692308  11.9791666666667 7.0733173076923  12.6171875 6.43629807692308  C 12.9296875 6.1358173076923  13.1608072916667 5.62199519230769  13.310546875 4.89483173076923  C 13.4602864583333 4.16766826923077  13.6588541666667 3.40745192307692  13.90625 2.61418269230769  C 14.1536458333333 1.82091346153846  14.5572916666667 1.171875  15.1171875 0.667067307692306  C 15.625 0.222355769230771  16.2109375 0  16.875 0  C 17.96875 0  18.9518229166667 0.195312500000002  19.82421875 0.5859375  C 20.6966145833333 0.976562499999998  21.3606770833333 1.58653846153846  21.81640625 2.41586538461538  C 22.2721354166667 3.24519230769231  22.5 4.36298076923077  22.5 5.76923076923077  C 22.5 6.88701923076923  22.1875 8.04086538461539  21.5625 9.23076923076923  L 25 9.23076923076923  C 26.3541666666667 9.23076923076923  27.5260416666667 9.6875  28.515625 10.6009615384615  Z " fill-rule="nonzero" fill="#000000" stroke="none" transform="matrix(1 0 0 1 76 456 )" />
  </g>
</svg>