<?xml version="1.0" encoding="utf-8"?>
<svg version="1.1" xmlns:xlink="http://www.w3.org/1999/xlink" width="39px" height="50px" xmlns="http://www.w3.org/2000/svg">
  <g transform="matrix(1 0 0 1 -80 -410 )">
    <path d="M 35.1890156918688 28.61328125  C 36.5057061340942 29.0690104166667  37.7760342368046 29.789806547619  39 30.7756696428571  C 38.4065620542083 32.2637648809524  37.7018544935806 33.5472470238095  36.885877318117 34.6261160714286  C 36.0699001426534 35.7049851190476  35.2261055634807 36.528087797619  34.3544935805991 37.0954241071429  C 33.4828815977176 37.6627604166667  32.564907275321 38.0952380952381  31.6005706134094 38.3928571428571  C 30.6362339514979 38.6904761904762  29.6950784593438 38.8253348214286  28.7771041369472 38.7974330357143  C 27.8591298145506 38.76953125  26.9643366619116 38.6904761904762  26.09272467903 38.5602678571429  C 25.2211126961484 38.4300595238095  24.4190442225392 38.2254464285714  23.6865192582026 37.9464285714286  C 22.9539942938659 37.6674107142857  22.3095577746077 37.4116443452381  21.753209700428 37.1791294642857  C 21.1968616262482 36.9466145833333  20.7703281027104 36.7373511904762  20.4736091298146 36.5513392857143  L 20.0007132667618 36.2723214285714  C 17.9051355206847 40.5133928571429  15.2207560627675 43.8569568452381  11.94757489301 46.3030133928571  C 8.6743937232525 48.7490699404762  5.10912981455064 49.9813988095238  1.25178316690442 50  C 0.899429386590585 50  0.602710413694722 49.8790922619048  0.361626248216833 49.6372767857143  C 0.120542082738944 49.3954613095238  0 49.0978422619048  0 48.7444196428571  C 0 48.3909970238095  0.120542082738944 48.0980282738095  0.361626248216833 47.8655133928571  C 0.602710413694722 47.6329985119048  0.899429386590585 47.5167410714286  1.25178316690442 47.5167410714286  C 4.46005706134094 47.4981398809524  7.45042796005706 46.4983258928571  10.2228958630528 44.5172991071429  C 12.9953637660485 42.5362723214286  15.3273894436519 39.7972470238095  17.2189728958631 36.3002232142857  C 16.5513552068474 36.5606398809524  15.8837375178317 36.7745535714286  15.216119828816 36.9419642857143  C 14.5485021398003 37.109375  13.7788873038516 37.2302827380952  12.90727532097 37.3046875  C 12.0356633380884 37.3790922619048  11.1918687589158 37.3558407738095  10.3758915834522 37.2349330357143  C 9.55991440798859 37.114025297619  8.69757489300999 36.8489583333333  7.7888730385164 36.4397321428571  C 6.88017118402283 36.030505952381  6.02710413694722 35.4817708333333  5.22967189728959 34.7935267857143  C 4.43223965763195 34.1052827380952  3.64871611982882 33.1752232142857  2.87910128388017 32.0033482142857  C 2.10948644793153 30.8314732142857  1.41868758915835 29.4735863095238  0.806704707560628 27.9296875  C 2.92082738944365 27.055431547619  4.90513552068474 26.5252976190476  6.75962910128388 26.3392857142857  C 8.61412268188302 26.1532738095238  10.1672610556348 26.2230282738095  11.4190442225392 26.5485491071429  C 12.6708273894437 26.8740699404762  13.8252496433666 27.3995535714286  14.8823109843081 28.125  C 15.9393723252496 28.8504464285714  16.7599857346648 29.5665922619048  17.3441512125535 30.2734375  C 17.9283166904422 30.9802827380952  18.4522111269615 31.742931547619  18.9158345221113 32.5613839285714  C 19.8987161198288 30.1246279761905  20.6312410841655 27.4181547619048  21.1134094151213 24.4419642857143  C 20.9835948644793 24.4605654761905  20.8166904422254 24.4838169642857  20.6126961483595 24.51171875  C 20.4087018544936 24.5396205357143  19.9775320970043 24.5628720238095  19.3191868758916 24.5814732142857  C 18.6608416547789 24.6000744047619  18.0164051355207 24.5954241071429  17.385877318117 24.5675223214286  C 16.7553495007133 24.5396205357143  15.9996433666191 24.4466145833333  15.1187589158345 24.2885044642857  C 14.2378744650499 24.1303943452381  13.4172610556348 23.9164806547619  12.6569186875892 23.6467633928571  C 11.8965763195435 23.3770461309524  11.1176890156919 22.9817708333333  10.3202567760342 22.4609375  C 9.52282453637661 21.9401041666667  8.82738944365193 21.3355654761905  8.2339514978602 20.6473214285714  C 7.64051355206847 19.9590773809524  7.13516405135521 19.0801711309524  6.7179029957204 18.0106026785714  C 6.30064194008559 16.9410342261905  6.03637660485022 15.7552083333333  5.92510699001427 14.453125  C 7.22325249643367 13.9322916666667  8.4611269614836 13.5928199404762  9.63873038516405 13.4347098214286  C 10.8163338088445 13.2765997023809  11.8594864479315 13.285900297619  12.7681883024251 13.4626116071429  C 13.6768901569187 13.6393229166667  14.5299572039943 13.9183407738095  15.3273894436519 14.2996651785714  C 16.1248216833096 14.6809895833333  16.8063480741797 15.1460193452381  17.3719686162625 15.6947544642857  C 17.9375891583452 16.2434895833333  18.456847360913 16.8108258928571  18.9297432239658 17.3967633928571  C 19.4026390870185 17.9827008928571  19.7920827389444 18.5686383928571  20.0980741797432 19.1545758928571  C 20.4040656205421 19.7405133928571  20.6590584878745 20.2613467261905  20.8630527817404 20.7170758928571  C 21.0670470756063 21.1728050595238  21.2154065620542 21.5401785714286  21.3081312410842 21.8191964285714  L 21.4194008559201 22.265625  C 21.641940085592 19.9962797619048  21.753209700428 18.1826636904762  21.753209700428 16.8247767857143  C 21.60485021398 16.7131696428571  21.4054921540656 16.5643601190476  21.1551355206847 16.3783482142857  C 20.9047788873039 16.1923363095238  20.4504279600571 15.7784598214286  19.7920827389444 15.13671875  C 19.1337375178317 14.4949776785714  18.5449358059914 13.8299851190476  18.0256776034237 13.1417410714286  C 17.5064194008559 12.4534970238095  17.0057061340942 11.5885416666667  16.5235378031384 10.546875  C 16.0413694721826 9.50520833333333  15.7353780313837 8.45889136904762  15.6055634807418 7.40792410714286  C 15.4757489300999 6.35695684523809  15.5870185449358 5.17578125  15.9393723252496 3.86439732142857  C 16.2917261055635 2.55301339285715  16.9407988587732 1.26488095238095  17.8865905848787 0  C 19.2403708987161 0.465029761904756  20.4226105563481 1.03701636904762  21.4333095577746 1.71595982142857  C 22.4440085592011 2.39490327380952  23.2275320970043 3.10639880952381  23.783880171184 3.85044642857143  C 24.3402282453638 4.59449404761904  24.7853067047076 5.38504464285715  25.1191155492154 6.22209821428572  C 25.4529243937233 7.05915178571428  25.6430099857347 7.88690476190476  25.6893723252496 8.70535714285715  C 25.7357346647646 9.52380952380952  25.7310984308131 10.3190104166667  25.6754636233951 11.0909598214286  C 25.6198288159772 11.8629092261905  25.4992867332382 12.5744047619048  25.3138373751783 13.2254464285714  C 25.1283880171184 13.8764880952381  24.9522111269615 14.453125  24.7853067047076 14.9553571428571  C 24.6184022824536 15.4575892857143  24.4607703281027 15.8482142857143  24.3124108416548 16.1272321428571  L 24.1176890156919 16.5457589285714  C 24.1362339514979 16.6201636904762  24.1455064194009 17.0851934523809  24.1455064194009 17.9408482142857  C 24.1455064194009 18.7965029761905  24.1362339514979 19.4661458333333  24.1176890156919 19.9497767857143  C 24.1733238231098 19.8195684523809  24.2660485021398 19.6475074404762  24.3958630527817 19.43359375  C 24.5256776034237 19.2196800595238  24.8084878744651 18.8197544642857  25.2442938659058 18.2338169642857  C 25.6800998573467 17.6478794642857  26.1483594864479 17.1084449404762  26.6490727532097 16.6155133928571  C 27.1497860199715 16.1225818452381  27.8081312410842 15.6063988095238  28.6241084165478 15.0669642857143  C 29.4400855920114 14.5275297619048  30.2885164051355 14.1136532738095  31.1694008559201 13.8253348214286  C 32.0502853067047 13.5370163690476  33.0888017118402 13.4021577380952  34.2849500713267 13.4207589285714  C 35.4810984308131 13.4393601190476  36.7097004279601 13.6625744047619  37.9707560627675 14.0904017857143  C 37.9336661911555 15.5412946428571  37.7343081312411 16.8573288690476  37.3726818830242 18.0385044642857  C 37.0110556348074 19.2196800595238  36.5474322396576 20.1915922619048  35.9818116975749 20.9542410714286  C 35.4161911554922 21.7168898809524  34.771754636234 22.3818824404762  34.0485021398003 22.94921875  C 33.3252496433666 23.5165550595238  32.5695435092725 23.9397321428571  31.7813837375178 24.21875  C 30.9932239657632 24.4977678571429  30.2097004279601 24.7209821428571  29.4308131241084 24.8883928571429  C 28.6519258202568 25.0558035714286  27.9101283880171 25.1441592261905  27.2054208273894 25.1534598214286  C 26.5007132667618 25.1627604166667  25.8748216833096 25.1534598214286  25.3277460770328 25.1255580357143  C 24.7806704707561 25.09765625  24.3495007132668 25.0558035714286  24.0342368045649 25  L 23.5613409415121 24.9162946428571  C 23.1348074179743 27.6506696428571  22.4579172610556 30.2827380952381  21.5306704707561 32.8125  C 21.641940085592 32.6822916666667  21.8088445078459 32.5102306547619  22.0313837375178 32.2963169642857  C 22.2539229671897 32.0824032738095  22.712910128388 31.7010788690476  23.4083452211127 31.15234375  C 24.1037803138374 30.6036086309524  24.8223965763195 30.1153273809524  25.5641940085592 29.6875  C 26.3059914407989 29.2596726190476  27.2286019971469 28.8690476190476  28.3320256776034 28.515625  C 29.4354493580599 28.1622023809524  30.5249643366619 27.9761904761905  31.6005706134094 27.9575892857143  C 32.6761768901569 27.9389880952381  33.8723252496434 28.1575520833333  35.1890156918688 28.61328125  Z " fill-rule="nonzero" fill="#068a7a" stroke="none" transform="matrix(1 0 0 1 80 410 )" />
  </g>
</svg>