<?xml version="1.0" encoding="utf-8"?>
<svg version="1.1" xmlns:xlink="http://www.w3.org/1999/xlink" width="45px" height="45px" xmlns="http://www.w3.org/2000/svg">
  <g transform="matrix(1 0 0 1 -74 -243 )">
    <path d="M 37.3324022346369 1.35602678571429  C 38.3212290502793 0.452008928571431  39.4106145251397 0  40.6005586592179 0  C 41.7737430167598 0  42.8002793296089 0.389229910714287  43.6801675977654 1.16768973214286  C 44.5600558659218 1.94614955357143  45 2.92131696428571  45 4.09319196428571  C 45 5.14787946428571  44.622905027933 6.41183035714285  43.8687150837989 7.88504464285714  C 38.304469273743 18.4151785714286  34.4078212290503 24.7098214285714  32.1787709497207 26.7689732142857  C 30.5530726256983 28.2924107142857  28.7262569832402 29.0541294642857  26.6983240223464 29.0541294642857  C 24.586592178771 29.0541294642857  22.7723463687151 28.2798549107143  21.2555865921788 26.7313058035714  C 19.7388268156425 25.1827566964286  18.9804469273743 23.3454241071429  18.9804469273743 21.2193080357143  C 18.9804469273743 19.0764508928571  19.7513966480447 17.3018973214286  21.2932960893855 15.8956473214286  L 37.3324022346369 1.35602678571429  Z M 14.6061452513966 26.2290736607143  C 15.4776536312849 26.103515625  16.5251396648045 26.015625  17.7486033519553 25.9654017857143  C 18.4022346368715 27.2377232142857  19.2946927374302 28.3258928571429  20.4259776536313 29.2299107142857  C 21.5572625698324 30.1339285714286  22.8184357541899 30.7700892857143  24.2094972067039 31.1383928571429  L 24.2346368715084 32.9213169642857  C 24.3016759776536 36.4871651785714  23.2164804469274 39.3917410714286  20.9790502793296 41.6350446428571  C 18.7416201117318 43.8783482142857  15.8212290502793 45  12.2178770949721 45  C 10.1564245810056 45  8.32960893854749 44.6107700892857  6.73743016759777 43.8323102678571  C 5.14525139664805 43.0538504464286  3.86731843575419 41.9866071428571  2.9036312849162 40.6305803571429  C 1.93994413407821 39.2745535714286  1.21508379888268 37.7427455357143  0.729050279329609 36.03515625  C 0.243016759776536 34.3275669642857  0 32.4860491071429  0 30.5106026785714  C 0.11731843575419 30.5943080357143  0.460893854748603 30.8454241071429  1.03072625698324 31.2639508928571  C 1.60055865921788 31.6824776785714  2.12011173184358 32.0549665178571  2.58938547486034 32.3814174107143  C 3.0586592178771 32.7078683035714  3.55307262569832 33.0133928571429  4.07262569832402 33.2979910714286  C 4.59217877094972 33.5825892857143  4.97765363128492 33.7248883928571  5.22905027932961 33.7248883928571  C 5.91620111731844 33.7248883928571  6.37709497206704 33.4151785714286  6.61173184357542 32.7957589285714  C 7.03072625698324 31.6908482142857  7.51256983240224 30.7491629464286  8.0572625698324 29.970703125  C 8.60195530726257 29.1922433035714  9.18435754189944 28.5560825892857  9.80446927374302 28.0622209821429  C 10.4245810055866 27.568359375  11.1620111731844 27.1707589285714  12.0167597765363 26.8694196428571  C 12.8715083798883 26.5680803571429  13.7346368715084 26.3546316964286  14.6061452513966 26.2290736607143  Z " fill-rule="nonzero" fill="#068a7a" stroke="none" transform="matrix(1 0 0 1 74 243 )" />
  </g>
</svg>