<?xml version="1.0" encoding="utf-8"?>
<svg version="1.1" xmlns:xlink="http://www.w3.org/1999/xlink" width="45px" height="45px" xmlns="http://www.w3.org/2000/svg">
  <g transform="matrix(1 0 0 1 -257 -246 )">
    <path d="M 31.6640625 4.19363839285714  L 33.5859375 6.25279017857143  C 33.7421875 6.42020089285714  33.8203125 6.61272321428571  33.8203125 6.83035714285714  C 33.8203125 7.04799107142857  33.7421875 7.24051339285714  33.5859375 7.40792410714286  L 18.9140625 23.1277901785714  C 18.7578125 23.2952008928571  18.578125 23.37890625  18.375 23.37890625  C 18.171875 23.37890625  17.9921875 23.2952008928571  17.8359375 23.1277901785714  L 15.9140625 21.0686383928571  C 15.7578125 20.9012276785714  15.6796875 20.7087053571429  15.6796875 20.4910714285714  C 15.6796875 20.2734375  15.7578125 20.0809151785714  15.9140625 19.9135044642857  L 16.9453125 18.80859375  C 15.8203125 17.28515625  15.18359375 15.5524553571429  15.03515625 13.6104910714286  C 14.88671875 11.6685267857143  15.25 9.86886160714286  16.125 8.21149553571429  C 14.96875 7.02287946428571  13.59375 6.42857142857143  12 6.42857142857143  C 10.34375 6.42857142857143  8.9296875 7.05636160714286  7.7578125 8.31194196428571  C 6.5859375 9.56752232142857  6 11.0825892857143  6 12.8571428571429  L 6 45  L 0 45  L 0 12.8571428571429  C 0 11.1160714285714  0.31640625 9.45452008928571  0.94921875 7.87248883928571  C 1.58203125 6.29045758928571  2.4375 4.921875  3.515625 3.76674107142857  C 4.59375 2.61160714285714  5.87109375 1.69503348214286  7.34765625 1.01702008928571  C 8.82421875 0.339006696428569  10.375 0  12 0  C 13.65625 0  15.2265625 0.343191964285716  16.7109375 1.02957589285714  C 18.1953125 1.71595982142857  19.4921875 2.67857142857142  20.6015625 3.91741071428571  C 22.0703125 3.26450892857143  23.609375 3.05943080357143  25.21875 3.30217633928571  C 26.828125 3.544921875  28.2734375 4.21037946428571  29.5546875 5.29854910714286  L 30.5859375 4.19363839285714  C 30.7421875 4.02622767857143  30.921875 3.94252232142857  31.125 3.94252232142857  C 31.328125 3.94252232142857  31.5078125 4.02622767857143  31.6640625 4.19363839285714  Z M 30.4453125 13.3342633928571  C 30.7421875 13.0161830357143  31.09375 12.8571428571429  31.5 12.8571428571429  C 31.90625 12.8571428571429  32.2578125 13.0161830357143  32.5546875 13.3342633928571  C 32.8515625 13.65234375  33 14.0290178571429  33 14.4642857142857  C 33 14.8995535714286  32.8515625 15.2762276785714  32.5546875 15.5943080357143  C 32.2578125 15.9123883928571  31.90625 16.0714285714286  31.5 16.0714285714286  C 31.09375 16.0714285714286  30.7421875 15.9123883928571  30.4453125 15.5943080357143  C 30.1484375 15.2762276785714  30 14.8995535714286  30 14.4642857142857  C 30 14.0290178571429  30.1484375 13.65234375  30.4453125 13.3342633928571  Z M 38.5546875 15.5943080357143  C 38.2578125 15.9123883928571  37.90625 16.0714285714286  37.5 16.0714285714286  C 37.09375 16.0714285714286  36.7421875 15.9123883928571  36.4453125 15.5943080357143  C 36.1484375 15.2762276785714  36 14.8995535714286  36 14.4642857142857  C 36 14.0290178571429  36.1484375 13.65234375  36.4453125 13.3342633928571  C 36.7421875 13.0161830357143  37.09375 12.8571428571429  37.5 12.8571428571429  C 37.90625 12.8571428571429  38.2578125 13.0161830357143  38.5546875 13.3342633928571  C 38.8515625 13.65234375  39 14.0290178571429  39 14.4642857142857  C 39 14.8995535714286  38.8515625 15.2762276785714  38.5546875 15.5943080357143  Z M 42.4453125 13.3342633928571  C 42.7421875 13.0161830357143  43.09375 12.8571428571429  43.5 12.8571428571429  C 43.90625 12.8571428571429  44.2578125 13.0161830357143  44.5546875 13.3342633928571  C 44.8515625 13.65234375  45 14.0290178571429  45 14.4642857142857  C 45 14.8995535714286  44.8515625 15.2762276785714  44.5546875 15.5943080357143  C 44.2578125 15.9123883928571  43.90625 16.0714285714286  43.5 16.0714285714286  C 43.09375 16.0714285714286  42.7421875 15.9123883928571  42.4453125 15.5943080357143  C 42.1484375 15.2762276785714  42 14.8995535714286  42 14.4642857142857  C 42 14.0290178571429  42.1484375 13.65234375  42.4453125 13.3342633928571  Z M 27.4453125 16.5485491071429  C 27.7421875 16.23046875  28.09375 16.0714285714286  28.5 16.0714285714286  C 28.90625 16.0714285714286  29.2578125 16.23046875  29.5546875 16.5485491071429  C 29.8515625 16.8666294642857  30 17.2433035714286  30 17.6785714285714  C 30 18.1138392857143  29.8515625 18.4905133928571  29.5546875 18.80859375  C 29.2578125 19.1266741071429  28.90625 19.2857142857143  28.5 19.2857142857143  C 28.09375 19.2857142857143  27.7421875 19.1266741071429  27.4453125 18.80859375  C 27.1484375 18.4905133928571  27 18.1138392857143  27 17.6785714285714  C 27 17.2433035714286  27.1484375 16.8666294642857  27.4453125 16.5485491071429  Z M 33.4453125 18.80859375  C 33.1484375 18.4905133928571  33 18.1138392857143  33 17.6785714285714  C 33 17.2433035714286  33.1484375 16.8666294642857  33.4453125 16.5485491071429  C 33.7421875 16.23046875  34.09375 16.0714285714286  34.5 16.0714285714286  C 34.90625 16.0714285714286  35.2578125 16.23046875  35.5546875 16.5485491071429  C 35.8515625 16.8666294642857  36 17.2433035714286  36 17.6785714285714  C 36 18.1138392857143  35.8515625 18.4905133928571  35.5546875 18.80859375  C 35.2578125 19.1266741071429  34.90625 19.2857142857143  34.5 19.2857142857143  C 34.09375 19.2857142857143  33.7421875 19.1266741071429  33.4453125 18.80859375  Z M 39.4453125 16.5485491071429  C 39.7421875 16.23046875  40.09375 16.0714285714286  40.5 16.0714285714286  C 40.90625 16.0714285714286  41.2578125 16.23046875  41.5546875 16.5485491071429  C 41.8515625 16.8666294642857  42 17.2433035714286  42 17.6785714285714  C 42 18.1138392857143  41.8515625 18.4905133928571  41.5546875 18.80859375  C 41.2578125 19.1266741071429  40.90625 19.2857142857143  40.5 19.2857142857143  C 40.09375 19.2857142857143  39.7421875 19.1266741071429  39.4453125 18.80859375  C 39.1484375 18.4905133928571  39 18.1138392857143  39 17.6785714285714  C 39 17.2433035714286  39.1484375 16.8666294642857  39.4453125 16.5485491071429  Z M 24.4453125 19.7628348214286  C 24.7421875 19.4447544642857  25.09375 19.2857142857143  25.5 19.2857142857143  C 25.90625 19.2857142857143  26.2578125 19.4447544642857  26.5546875 19.7628348214286  C 26.8515625 20.0809151785714  27 20.4575892857143  27 20.8928571428571  C 27 21.328125  26.8515625 21.7047991071429  26.5546875 22.0228794642857  C 26.2578125 22.3409598214286  25.90625 22.5  25.5 22.5  C 25.09375 22.5  24.7421875 22.3409598214286  24.4453125 22.0228794642857  C 24.1484375 21.7047991071429  24 21.328125  24 20.8928571428571  C 24 20.4575892857143  24.1484375 20.0809151785714  24.4453125 19.7628348214286  Z M 32.5546875 22.0228794642857  C 32.2578125 22.3409598214286  31.90625 22.5  31.5 22.5  C 31.09375 22.5  30.7421875 22.3409598214286  30.4453125 22.0228794642857  C 30.1484375 21.7047991071429  30 21.328125  30 20.8928571428571  C 30 20.4575892857143  30.1484375 20.0809151785714  30.4453125 19.7628348214286  C 30.7421875 19.4447544642857  31.09375 19.2857142857143  31.5 19.2857142857143  C 31.90625 19.2857142857143  32.2578125 19.4447544642857  32.5546875 19.7628348214286  C 32.8515625 20.0809151785714  33 20.4575892857143  33 20.8928571428571  C 33 21.328125  32.8515625 21.7047991071429  32.5546875 22.0228794642857  Z M 36.4453125 19.7628348214286  C 36.7421875 19.4447544642857  37.09375 19.2857142857143  37.5 19.2857142857143  C 37.90625 19.2857142857143  38.2578125 19.4447544642857  38.5546875 19.7628348214286  C 38.8515625 20.0809151785714  39 20.4575892857143  39 20.8928571428571  C 39 21.328125  38.8515625 21.7047991071429  38.5546875 22.0228794642857  C 38.2578125 22.3409598214286  37.90625 22.5  37.5 22.5  C 37.09375 22.5  36.7421875 22.3409598214286  36.4453125 22.0228794642857  C 36.1484375 21.7047991071429  36 21.328125  36 20.8928571428571  C 36 20.4575892857143  36.1484375 20.0809151785714  36.4453125 19.7628348214286  Z M 29.5546875 25.2371651785714  C 29.2578125 25.5552455357143  28.90625 25.7142857142857  28.5 25.7142857142857  C 28.09375 25.7142857142857  27.7421875 25.5552455357143  27.4453125 25.2371651785714  C 27.1484375 24.9190848214286  27 24.5424107142857  27 24.1071428571429  C 27 23.671875  27.1484375 23.2952008928571  27.4453125 22.9771205357143  C 27.7421875 22.6590401785714  28.09375 22.5  28.5 22.5  C 28.90625 22.5  29.2578125 22.6590401785714  29.5546875 22.9771205357143  C 29.8515625 23.2952008928571  30 23.671875  30 24.1071428571429  C 30 24.5424107142857  29.8515625 24.9190848214286  29.5546875 25.2371651785714  Z M 33.4453125 22.9771205357143  C 33.7421875 22.6590401785714  34.09375 22.5  34.5 22.5  C 34.90625 22.5  35.2578125 22.6590401785714  35.5546875 22.9771205357143  C 35.8515625 23.2952008928571  36 23.671875  36 24.1071428571429  C 36 24.5424107142857  35.8515625 24.9190848214286  35.5546875 25.2371651785714  C 35.2578125 25.5552455357143  34.90625 25.7142857142857  34.5 25.7142857142857  C 34.09375 25.7142857142857  33.7421875 25.5552455357143  33.4453125 25.2371651785714  C 33.1484375 24.9190848214286  33 24.5424107142857  33 24.1071428571429  C 33 23.671875  33.1484375 23.2952008928571  33.4453125 22.9771205357143  Z M 24.4453125 26.19140625  C 24.7421875 25.8733258928571  25.09375 25.7142857142857  25.5 25.7142857142857  C 25.90625 25.7142857142857  26.2578125 25.8733258928571  26.5546875 26.19140625  C 26.8515625 26.5094866071429  27 26.8861607142857  27 27.3214285714286  C 27 27.7566964285714  26.8515625 28.1333705357143  26.5546875 28.4514508928571  C 26.2578125 28.76953125  25.90625 28.9285714285714  25.5 28.9285714285714  C 25.09375 28.9285714285714  24.7421875 28.76953125  24.4453125 28.4514508928571  C 24.1484375 28.1333705357143  24 27.7566964285714  24 27.3214285714286  C 24 26.8861607142857  24.1484375 26.5094866071429  24.4453125 26.19140625  Z M 30.4453125 26.19140625  C 30.7421875 25.8733258928571  31.09375 25.7142857142857  31.5 25.7142857142857  C 31.90625 25.7142857142857  32.2578125 25.8733258928571  32.5546875 26.19140625  C 32.8515625 26.5094866071429  33 26.8861607142857  33 27.3214285714286  C 33 27.7566964285714  32.8515625 28.1333705357143  32.5546875 28.4514508928571  C 32.2578125 28.76953125  31.90625 28.9285714285714  31.5 28.9285714285714  C 31.09375 28.9285714285714  30.7421875 28.76953125  30.4453125 28.4514508928571  C 30.1484375 28.1333705357143  30 27.7566964285714  30 27.3214285714286  C 30 26.8861607142857  30.1484375 26.5094866071429  30.4453125 26.19140625  Z M 27.4453125 29.4056919642857  C 27.7421875 29.0876116071429  28.09375 28.9285714285714  28.5 28.9285714285714  C 28.90625 28.9285714285714  29.2578125 29.0876116071429  29.5546875 29.4056919642857  C 29.8515625 29.7237723214286  30 30.1004464285714  30 30.5357142857143  C 30 30.9709821428571  29.8515625 31.34765625  29.5546875 31.6657366071429  C 29.2578125 31.9838169642857  28.90625 32.1428571428571  28.5 32.1428571428571  C 28.09375 32.1428571428571  27.7421875 31.9838169642857  27.4453125 31.6657366071429  C 27.1484375 31.34765625  27 30.9709821428571  27 30.5357142857143  C 27 30.1004464285714  27.1484375 29.7237723214286  27.4453125 29.4056919642857  Z M 24.4453125 32.6199776785714  C 24.7421875 32.3018973214286  25.09375 32.1428571428571  25.5 32.1428571428571  C 25.90625 32.1428571428571  26.2578125 32.3018973214286  26.5546875 32.6199776785714  C 26.8515625 32.9380580357143  27 33.3147321428571  27 33.75  C 27 34.1852678571429  26.8515625 34.5619419642857  26.5546875 34.8800223214286  C 26.2578125 35.1981026785714  25.90625 35.3571428571429  25.5 35.3571428571429  C 25.09375 35.3571428571429  24.7421875 35.1981026785714  24.4453125 34.8800223214286  C 24.1484375 34.5619419642857  24 34.1852678571429  24 33.75  C 24 33.3147321428571  24.1484375 32.9380580357143  24.4453125 32.6199776785714  Z " fill-rule="nonzero" fill="#068a7a" stroke="none" transform="matrix(1 0 0 1 257 246 )" />
  </g>
</svg>