<?xml version="1.0" encoding="utf-8"?>
<svg version="1.1" xmlns:xlink="http://www.w3.org/1999/xlink" width="45px" height="37px" xmlns="http://www.w3.org/2000/svg">
  <g transform="matrix(1 0 0 1 -78 -245 )">
    <path d="M 21.434326171875 15.7900390625  C 19.786376953125 17.5966796875  17.7978515625 18.5  15.46875 18.5  C 13.1396484375 18.5  11.151123046875 17.5966796875  9.503173828125 15.7900390625  C 7.855224609375 13.9833984375  7.03125 11.8033854166667  7.03125 9.25  C 7.03125 6.69661458333333  7.855224609375 4.5166015625  9.503173828125 2.7099609375  C 11.151123046875 0.9033203125  13.1396484375 0  15.46875 0  C 17.7978515625 0  19.786376953125 0.9033203125  21.434326171875 2.7099609375  C 23.082275390625 4.5166015625  23.90625 6.69661458333333  23.90625 9.25  C 23.90625 11.8033854166667  23.082275390625 13.9833984375  21.434326171875 15.7900390625  Z M 36.5625 13.1041666666667  L 36.5625 21.5833333333333  L 44.296875 21.5833333333333  C 44.4873046875 21.5833333333333  44.652099609375 21.6596137152778  44.791259765625 21.8121744791667  C 44.930419921875 21.9647352430556  45 22.1453993055556  45 22.3541666666667  L 45 26.9791666666667  C 45 27.1879340277778  44.930419921875 27.3685980902778  44.791259765625 27.5211588541667  C 44.652099609375 27.6737196180556  44.4873046875 27.75  44.296875 27.75  L 36.5625 27.75  L 36.5625 36.2291666666667  C 36.5625 36.4379340277778  36.492919921875 36.6185980902778  36.353759765625 36.7711588541667  C 36.214599609375 36.9237196180556  36.0498046875 37  35.859375 37  L 31.640625 37  C 31.4501953125 37  31.285400390625 36.9237196180556  31.146240234375 36.7711588541667  C 31.007080078125 36.6185980902778  30.9375 36.4379340277778  30.9375 36.2291666666667  L 30.9375 27.75  L 23.203125 27.75  C 23.0126953125 27.75  22.847900390625 27.6737196180556  22.708740234375 27.5211588541667  C 22.569580078125 27.3685980902778  22.5 27.1879340277778  22.5 26.9791666666667  L 22.5 22.3541666666667  C 22.5 22.1453993055556  22.569580078125 21.9647352430556  22.708740234375 21.8121744791667  C 22.847900390625 21.6596137152778  23.0126953125 21.5833333333333  23.203125 21.5833333333333  L 30.9375 21.5833333333333  L 30.9375 13.1041666666667  C 30.9375 12.8953993055556  31.007080078125 12.7147352430556  31.146240234375 12.5621744791667  C 31.285400390625 12.4096137152778  31.4501953125 12.3333333333333  31.640625 12.3333333333333  L 35.859375 12.3333333333333  C 36.0498046875 12.3333333333333  36.214599609375 12.4096137152778  36.353759765625 12.5621744791667  C 36.492919921875 12.7147352430556  36.5625 12.8953993055556  36.5625 13.1041666666667  Z M 20.390625 22.3541666666667  L 20.390625 26.9791666666667  C 20.390625 27.8142361111111  20.6689453125 28.5368923611111  21.2255859375 29.1471354166667  C 21.7822265625 29.7573784722222  22.44140625 30.0625  23.203125 30.0625  L 28.828125 30.0625  L 28.828125 35.7955729166667  C 27.83203125 36.5985243055556  26.57958984375 37  25.07080078125 37  L 5.86669921875 37  C 4.09423828125 37  2.67333984375 36.4459635416667  1.60400390625 35.337890625  C 0.53466796875 34.2298177083333  0 32.7042100694445  0 30.7610677083333  C 0 29.9099392361111  0.025634765625 29.0788845486111  0.076904296875 28.2679036458333  C 0.128173828125 27.4569227430556  0.230712890625 26.5817057291667  0.384521484375 25.6422526041667  C 0.538330078125 24.7027994791667  0.732421875 23.8315972222222  0.966796875 23.0286458333333  C 1.201171875 22.2256944444444  1.51611328125 21.4428168402778  1.91162109375 20.6800130208333  C 2.30712890625 19.9172092013889  2.76123046875 19.2668185763889  3.27392578125 18.7288411458333  C 3.78662109375 18.1908637152778  4.412841796875 17.7612847222222  5.152587890625 17.4401041666667  C 5.892333984375 17.1189236111111  6.708984375 16.9583333333333  7.6025390625 16.9583333333333  C 7.880859375 16.9583333333333  8.16650390625 17.0948350694444  8.45947265625 17.3678385416667  C 9.61669921875 18.3474392361111  10.748291015625 19.0821397569444  11.854248046875 19.5719401041667  C 12.960205078125 20.0617404513889  14.1650390625 20.306640625  15.46875 20.306640625  C 16.7724609375 20.306640625  17.977294921875 20.0617404513889  19.083251953125 19.5719401041667  C 20.189208984375 19.0821397569444  21.32080078125 18.3474392361111  22.47802734375 17.3678385416667  C 22.77099609375 17.0948350694444  23.056640625 16.9583333333333  23.3349609375 16.9583333333333  C 25.2685546875 16.9583333333333  26.85791015625 17.7291666666667  28.10302734375 19.2708333333333  L 23.203125 19.2708333333333  C 22.44140625 19.2708333333333  21.7822265625 19.5759548611111  21.2255859375 20.1861979166667  C 20.6689453125 20.7964409722222  20.390625 21.5190972222222  20.390625 22.3541666666667  Z " fill-rule="nonzero" fill="#068a7a" stroke="none" transform="matrix(1 0 0 1 78 245 )" />
  </g>
</svg>