<?xml version="1.0" standalone="no"?>
<!DOCTYPE svg PUBLIC "-//W3C//DTD SVG 20010904//EN"
 "http://www.w3.org/TR/2001/REC-SVG-20010904/DTD/svg10.dtd">
<svg version="1.0" xmlns="http://www.w3.org/2000/svg"
 width="981.000000pt" height="501.000000pt" viewBox="0 0 981.000000 501.000000"
 >
<g transform="translate(0.000000,501.000000) scale(0.100000,-0.100000)"
fill="#000000" stroke="none">
<path d="M5302 4971 c-184 -89 -394 -326 -690 -782 -66 -101 -129 -194 -139
-205 -24 -29 -2371 -1325 -2448 -1353 -33 -12 -415 -98 -850 -191 -862 -186
-878 -190 -948 -228 -62 -33 -148 -126 -180 -194 -47 -100 -49 -142 -26 -498
l21 -325 35 -64 c97 -179 287 -368 538 -535 120 -80 418 -229 570 -285 334
-123 730 -214 1141 -260 409 -47 345 -46 3784 -46 3131 0 3257 1 3315 18 185
57 315 190 361 368 15 57 16 117 10 544 -20 1357 -34 1622 -122 2240 -61 435
-178 909 -236 962 -51 46 -106 55 -173 27 -88 -36 -268 -28 -468 22 -110 27
-144 29 -182 12 -14 -6 -60 -59 -102 -116 -191 -262 -434 -525 -600 -649 -129
-96 -209 -132 -328 -144 -118 -13 -309 0 -450 31 -279 62 -576 207 -790 388
l-69 57 -23 115 c-60 303 -171 579 -311 773 -140 195 -349 335 -512 344 -56 4
-74 0 -128 -26z m230 -307 c123 -78 240 -235 321 -434 29 -70 77 -205 77 -216
0 -1 -51 21 -112 51 -170 80 -242 100 -368 100 -100 0 -109 -2 -180 -36 -117
-56 -240 -157 -374 -309 l-58 -65 -39 45 c-21 25 -41 53 -45 63 -6 20 43 105
180 302 185 269 383 502 457 538 36 17 65 9 141 -39z m3318 -781 c60 -12 131
-17 241 -18 l157 0 27 -110 c16 -60 30 -116 33 -122 2 -7 -9 -18 -24 -23 -240
-90 -697 -310 -959 -461 -307 -177 -387 -199 -895 -244 -381 -34 -725 -36
-950 -5 -433 59 -805 196 -1147 423 -128 85 -288 212 -288 228 0 18 130 163
203 225 89 76 157 114 206 114 122 0 438 -168 631 -336 121 -105 162 -136 279
-213 360 -234 783 -355 1176 -337 160 7 224 22 345 81 223 110 534 401 785
737 41 55 71 85 80 83 8 -2 53 -12 100 -22z m-4271 -259 c183 -235 502 -496
806 -661 457 -247 941 -365 1500 -365 200 0 547 20 670 38 l40 6 -151 -153
c-160 -164 -252 -276 -331 -404 l-49 -79 -565 -138 c-678 -166 -758 -184 -891
-203 -168 -25 -430 -30 -598 -12 -270 30 -428 70 -756 193 l-209 78 -130 1
c-110 0 -140 -3 -197 -23 -55 -19 -144 -70 -202 -115 -7 -5 -37 7 -76 31 -163
99 -350 158 -715 227 -353 66 -477 104 -530 161 -19 21 -25 38 -25 74 0 99
-13 88 363 296 187 104 345 189 350 189 5 0 73 -110 151 -245 135 -235 143
-246 188 -268 41 -21 51 -22 89 -12 74 20 122 96 105 166 -4 14 -67 131 -141
259 -74 129 -135 237 -135 242 0 14 141 86 150 77 5 -5 68 -112 140 -239 73
-126 139 -238 148 -249 61 -68 175 -57 223 21 40 64 28 100 -125 365 -75 131
-136 241 -136 246 0 8 139 86 144 81 2 -2 61 -104 131 -227 152 -265 180 -294
270 -278 71 14 125 90 111 158 -3 17 -62 129 -131 249 -69 120 -126 223 -127
229 -3 11 136 98 157 99 6 1 58 -81 115 -181 141 -249 165 -285 202 -308 64
-39 147 -16 188 52 38 63 31 85 -116 343 -75 132 -132 241 -128 242 5 2 43 23
84 47 41 25 80 45 85 45 6 1 30 -24 54 -55z m4815 -479 c28 -197 61 -496 72
-644 6 -83 5 -94 -8 -88 -139 53 -306 76 -440 60 -51 -7 -417 -91 -812 -188
-395 -96 -720 -174 -722 -172 -7 6 147 170 241 258 279 258 671 516 1118 735
233 113 510 234 519 225 3 -3 18 -87 32 -186z m-7505 -917 c16 -99 50 -164
121 -232 109 -104 205 -138 645 -225 165 -33 345 -74 400 -91 110 -35 275
-115 275 -134 0 -18 -77 -64 -121 -71 -66 -11 -114 4 -226 72 -140 85 -219
124 -325 161 -149 53 -225 63 -573 72 -319 9 -437 17 -635 46 -234 34 -474
100 -610 169 -123 63 -163 47 457 182 307 66 563 121 569 122 6 1 16 -31 23
-71z m7386 -54 c33 -8 94 -31 135 -51 74 -37 75 -39 82 -83 3 -25 7 -163 7
-306 l1 -261 -547 -2 c-1384 -3 -2502 -74 -3108 -197 -66 -13 -219 -51 -340
-84 -587 -160 -1031 -226 -1730 -260 -669 -31 -1780 -44 -2020 -22 -475 44
-884 136 -1190 270 -129 56 -255 128 -255 145 0 7 -7 124 -15 261 -10 174 -12
261 -5 287 10 36 77 109 101 109 7 0 43 -30 82 -66 169 -160 421 -271 763
-338 255 -49 446 -66 959 -85 214 -8 250 -12 328 -35 100 -30 179 -68 322
-155 128 -79 190 -102 291 -108 202 -13 368 81 486 275 58 95 114 143 197 168
88 27 151 15 365 -65 392 -149 629 -198 992 -208 228 -6 392 5 576 38 60 11
816 192 1681 404 865 211 1590 386 1612 388 58 6 161 -2 230 -19z m239 -1336
c4 -227 3 -365 -4 -387 -16 -56 -57 -108 -107 -138 l-48 -28 -3120 -3 c-3164
-3 -3411 -1 -3760 34 -502 49 -925 146 -1287 295 -121 50 -321 149 -315 156 2
2 60 -10 128 -26 427 -102 835 -137 1494 -127 1770 27 2249 76 3130 316 214
58 331 83 554 115 402 58 976 101 1661 125 427 15 457 15 1096 18 l571 2 7
-352z"/>
<path d="M5410 3691 c-53 -28 -80 -74 -80 -136 0 -157 188 -211 284 -82 15 21
21 43 21 82 0 60 -20 95 -75 133 -41 27 -102 29 -150 3z"/>
<path d="M5810 3503 c-57 -21 -109 -95 -110 -152 0 -39 37 -104 73 -128 40
-27 113 -31 157 -8 79 41 107 143 60 219 -35 57 -123 90 -180 69z"/>
<path d="M6424 930 c-64 -41 -80 -135 -35 -199 43 -60 52 -61 594 -61 466 0
494 1 535 20 34 15 47 29 63 66 28 62 19 106 -31 156 l-38 38 -528 0 c-511 0
-530 -1 -560 -20z"/>
<path d="M8084 930 c-64 -41 -80 -135 -35 -199 43 -60 52 -61 594 -61 466 0
494 1 535 20 33 15 47 29 62 62 25 54 25 72 0 123 -38 78 -12 75 -602 75 -505
0 -524 -1 -554 -20z"/>
</g>
</svg>
