<?xml version="1.0" encoding="utf-8"?>
<svg version="1.1" xmlns:xlink="http://www.w3.org/1999/xlink" width="75px" height="61px" xmlns="http://www.w3.org/2000/svg">
  <g transform="matrix(1 0 0 1 -147 -180 )">
    <path d="M 62.5977149729405 33.4893465909091  C 63.1990378833434 33.7204071969697  63.4996993385448 34.1392045454545  63 34.7457386363636  L 63 48.5227272727273  C 63.4996993385448 51.9597537878788  62.2294046903187 54.8985558712121  59.6888153938665 57.3391335227273  C 57.1482260974143 59.7797111742424  54.0889957907396 61  50.5111244738425 61  L 12.9885748647023 61  C 9.41070354780517 61  6.35147324113049 59.7797111742424  3.81088394467829 57.3391335227273  C 1.2702946482261 54.8985558712121  0 51.9597537878788  0 48.5227272727273  L 0 12.4772727272727  C 0 9.04024621212121  1.2702946482261 6.10144412878788  3.81088394467829 3.66086647727273  C 6.35147324113049 1.22028882575757  9.41070354780517 0  12.9885748647023 0  L 50.5111244738425 0  C 52.4052916416115 0  54.16416115454 0.361032196969694  55.7877330126278 1.08309659090909  C 56.2387251954299 1.28527462121212  56.5093205051112 1.61742424242424  56.5995189416717 2.07954545454545  C 56.6897173782321 2.57054924242424  56.5544197233915 2.98934659090909  56.1936259771497 3.3359375  L 53.9837642814191 5.45880681818182  C 53.6831028262177 5.74763257575757  53.337342152736 5.89204545454545  52.9464822609741 5.89204545454545  C 52.8562838244137 5.89204545454545  52.7209861695731 5.86316287878788  52.5405892964522 5.80539772727273  C 51.8490679494889 5.63210227272727  51.1725796752856 5.54545454545455  50.5111244738425 6  L 12.9885748647023 6  C 11.0042092603728 5.54545454545455  9.30547203848467 6.22419507575757  7.89236319903788 7.58167613636363  C 6.4792543595911 8.93915719696969  5.77269993986771 10.5710227272727  6 12.4772727272727  L 6 48.5227272727273  C 5.77269993986771 50.4289772727273  6.4792543595911 52.0608428030303  7.89236319903788 53.4183238636364  C 9.30547203848467 54.7758049242424  11.0042092603728 55.4545454545455  12.9885748647023 55  L 50.5111244738425 55  C 52.495490078172 55.4545454545455  54.1942273000601 54.7758049242424  55.6073361395069 53.4183238636364  C 57.0204449789537 52.0608428030303  57.7269993986771 50.4289772727273  57 48.5227272727273  L 57 37.5184659090909  C 57.7269993986771 37.1429924242424  57.8622970535177 36.8252840909091  58.132892363199 36.5653409090909  L 61.0192423331329 33.7926136363636  C 61.3199037883343 33.5037878787879  61.665664461816 33.359375  62.0565243535779 33.359375  C 62.2369212266987 33.359375  62.4173180998196 33.4026988636364  62.5977149729405 33.4893465909091  Z M 75 11.0909090909091  C 75 12.0440340909091  74.6392062537583 12.8671875  73.9176187612748 13.5603693181818  L 37.2068550811786 48.8259943181818  C 36.4852675886951 49.5191761363636  35.628382441371 49.8657670454545  34.6361996392063 49.8657670454545  C 33.6440168370415 49.8657670454545  32.7871316897174 49.5191761363636  32.0655441972339 48.8259943181818  L 12.6728803367408 30.1967329545455  C 11.9512928442574 29.5035511363636  11.5904990980156 28.6803977272727  11.5904990980156 27.7272727272727  C 11.5904990980156 26.7741477272727  11.9512928442574 25.9509943181818  12.6728803367408 25.2578125  L 17.6337943475646 20.4921875  C 18.3553818400481 19.7990056818182  19.2122669873722 19.4524147727273  20.204449789537 19.4524147727273  C 21.1966325917017 19.4524147727273  22.0535177390259 19.7990056818182  22.7751052315093 20.4921875  L 34.6361996392063 31.8863636363636  L 63.8153938665063 3.85582386363637  C 64.5369813589898 3.16264204545455  65.3938665063139 2.81605113636363  66.3860493084787 2.81605113636363  C 67.3782321106434 2.81605113636363  68.2351172579675 3.16264204545455  68.956704750451 3.85582386363637  L 73.9176187612748 8.62144886363637  C 74.6392062537583 9.31463068181818  75 10.1377840909091  75 11.0909090909091  Z " fill-rule="nonzero" fill="#068a7a" stroke="none" transform="matrix(1 0 0 1 147 180 )" />
  </g>
</svg>