<?xml version="1.0" encoding="utf-8"?>
<svg version="1.1" xmlns:xlink="http://www.w3.org/1999/xlink" width="21px" height="21px" xmlns="http://www.w3.org/2000/svg">
  <g transform="matrix(1 0 0 1 -288 -169 )">
    <path d="M 20.166015625 6.42578125  C 20.7220052083333 7.72005208333333  21 9.078125  21 10.5  C 21 11.921875  20.7220052083333 13.2799479166667  20.166015625 14.57421875  C 19.6100260416667 15.8684895833333  18.8626302083333 16.9850260416667  17.923828125 17.923828125  C 16.9850260416667 18.8626302083333  15.8684895833333 19.6100260416667  14.57421875 20.166015625  C 13.2799479166667 20.7220052083333  11.921875 21  10.5 21  C 8.93229166666667 21  7.44205729166667 20.6695963541667  6.029296875 20.0087890625  C 4.61653645833333 19.3479817708333  3.41341145833333 18.416015625  2.419921875 17.212890625  C 2.35611979166667 17.1217447916667  2.32649739583333 17.0192057291667  2.3310546875 16.9052734375  C 2.33561197916667 16.7913411458333  2.37434895833333 16.6979166666667  2.447265625 16.625  L 4.3203125 14.73828125  C 4.41145833333333 14.65625  4.525390625 14.615234375  4.662109375 14.615234375  C 4.80794270833333 14.6334635416667  4.91276041666667 14.6881510416667  4.9765625 14.779296875  C 5.64192708333333 15.6451822916667  6.45768229166667 16.3151041666667  7.423828125 16.7890625  C 8.38997395833333 17.2630208333333  9.41536458333333 17.5  10.5 17.5  C 11.4479166666667 17.5  12.3525390625 17.3154296875  13.2138671875 16.9462890625  C 14.0751953125 16.5771484375  14.8203125 16.078125  15.44921875 15.44921875  C 16.078125 14.8203125  16.5771484375 14.0751953125  16.9462890625 13.2138671875  C 17.3154296875 12.3525390625  17.5 11.4479166666667  17.5 10.5  C 17.5 9.55208333333333  17.3154296875 8.6474609375  16.9462890625 7.7861328125  C 16.5771484375 6.9248046875  16.078125 6.1796875  15.44921875 5.55078125  C 14.8203125 4.921875  14.0751953125 4.4228515625  13.2138671875 4.0537109375  C 12.3525390625 3.6845703125  11.4479166666667 3.5  10.5 3.5  C 9.60677083333333 3.5  8.75 3.66178385416667  7.9296875 3.9853515625  C 7.109375 4.30891927083333  6.38020833333333 4.771484375  5.7421875 5.373046875  L 7.615234375 7.259765625  C 7.89778645833333 7.533203125  7.96158854166667 7.84765625  7.806640625 8.203125  C 7.65169270833333 8.56770833333333  7.3828125 8.75  7 8.75  L 0.875 8.75  C 0.638020833333333 8.75  0.432942708333333 8.66341145833333  0.259765625 8.490234375  C 0.0865885416666667 8.31705729166667  0 8.11197916666667  0 7.875  L 0 1.75  C 0 1.3671875  0.182291666666667 1.09830729166667  0.546875 0.943359375  C 0.90234375 0.788411458333331  1.216796875 0.852213541666666  1.490234375 1.134765625  L 3.267578125 2.8984375  C 4.24283854166667 1.97786458333333  5.35709635416667 1.2646484375  6.6103515625 0.7587890625  C 7.86360677083333 0.252929687500001  9.16015625 0  10.5 0  C 11.921875 0  13.2799479166667 0.277994791666666  14.57421875 0.833984374999999  C 15.8684895833333 1.38997395833333  16.9850260416667 2.13736979166667  17.923828125 3.076171875  C 18.8626302083333 4.01497395833333  19.6100260416667 5.13151041666667  20.166015625 6.42578125  Z M 12.126953125 6.248046875  C 12.208984375 6.330078125  12.25 6.43489583333333  12.25 6.5625  L 12.25 12.6875  C 12.25 12.8151041666667  12.208984375 12.919921875  12.126953125 13.001953125  C 12.044921875 13.083984375  11.9401041666667 13.125  11.8125 13.125  L 7.4375 13.125  C 7.30989583333333 13.125  7.205078125 13.083984375  7.123046875 13.001953125  C 7.041015625 12.919921875  7 12.8151041666667  7 12.6875  L 7 11.8125  C 7 11.6848958333333  7.041015625 11.580078125  7.123046875 11.498046875  C 7.205078125 11.416015625  7.30989583333333 11.375  7.4375 11.375  L 10.5 11.375  L 10.5 6.5625  C 10.5 6.43489583333333  10.541015625 6.330078125  10.623046875 6.248046875  C 10.705078125 6.166015625  10.8098958333333 6.125  10.9375 6.125  L 11.8125 6.125  C 11.9401041666667 6.125  12.044921875 6.166015625  12.126953125 6.248046875  Z " fill-rule="nonzero" fill="#068a7a" stroke="none" transform="matrix(1 0 0 1 288 169 )" />
  </g>
</svg>