<?xml version="1.0" encoding="utf-8"?>
<svg version="1.1" xmlns:xlink="http://www.w3.org/1999/xlink" width="45px" height="45px" xmlns="http://www.w3.org/2000/svg">
  <g transform="matrix(1 0 0 1 -82 -402 )">
    <path d="M 41.0448195576251 3.91741071428571  L 44.7380675203725 7.45814732142857  C 44.9126891734575 7.62555803571428  45 7.81808035714285  45 8.03571428571429  C 45 8.25334821428571  44.9126891734575 8.44587053571428  44.7380675203725 8.61328125  L 41.0448195576251 12.1540178571429  C 40.5558789289872 12.6227678571429  39.9621653084983 12.8571428571429  39.2636786961583 13  L 4.05995343422584 13  C 3.60593713620489 12.8571428571429  3.21303841676368 12.6981026785714  2.88125727590221 12.3800223214286  C 2.54947613504075 12.0619419642857  2.38358556461001 11.6852678571429  2.38358556461001 11.25  L 2.38358556461001 4.82142857142857  C 2.38358556461001 4.38616071428571  2.54947613504075 4.00948660714286  2.88125727590221 3.69140625  C 3.21303841676368 3.37332589285714  3.60593713620489 3.21428571428571  4.05995343422584 4  L 19.1472642607683 4  L 19.1472642607683 1.60714285714286  C 19.1472642607683 1.171875  19.3131548311991 0.795200892857137  19.6449359720605 0.477120535714287  C 19.976717112922 0.159040178571432  20.3696158323632 0  20.8236321303842 0  L 24.1763678696158 0  C 24.6303841676368 0  25.023282887078 0.159040178571432  25.3550640279395 0.477120535714287  C 25.6868451688009 0.795200892857137  25.8527357392317 1.171875  25.8527357392317 1.60714285714286  L 25.8527357392317 4  L 39.2636786961583 4  C 39.9621653084983 3.21428571428571  40.5558789289872 3.44866071428571  41.0448195576251 3.91741071428571  Z M 20 43.3928571428571  L 20 30.5357142857143  L 25 30.5357142857143  L 25 43.3928571428571  C 25.8527357392317 43.828125  25.6868451688009 44.2047991071429  25.3550640279395 44.5228794642857  C 25.023282887078 44.8409598214286  24.6303841676368 45  24.1763678696158 45  L 20.8236321303842 45  C 20.3696158323632 45  19.976717112922 44.8409598214286  19.6449359720605 44.5228794642857  C 19.3131548311991 44.2047991071429  19.1472642607683 43.828125  20 43.3928571428571  Z M 25.8527357392317 20  L 40.9400465657742 20  C 41.3940628637951 19.2857142857143  41.7869615832363 19.4447544642857  42.1187427240978 19.7628348214286  C 42.4505238649593 20.0809151785714  42.61641443539 20.4575892857143  42.61641443539 20.8928571428571  L 42.61641443539 27.3214285714286  C 42.61641443539 27.7566964285714  42.4505238649593 28.1333705357143  42.1187427240978 28.4514508928571  C 41.7869615832363 28.76953125  41.3940628637951 28.9285714285714  40.9400465657742 29  L 5.73632130384168 29  C 5.03783469150175 28.9285714285714  4.44412107101281 28.6941964285714  3.95518044237485 28.2254464285714  L 0.261932479627474 24.6847098214286  C 0.0873108265424913 24.5172991071429  0 24.3247767857143  0 24.1071428571429  C 0 23.8895089285714  0.0873108265424913 23.6969866071429  0.261932479627474 23.5295758928571  L 3.95518044237485 19.9888392857143  C 4.44412107101281 19.5200892857143  5.03783469150175 19.2857142857143  5.73632130384168 20  L 19.1472642607683 20  L 19.1472642607683 14.4642857142857  L 25.8527357392317 14.4642857142857  L 25.8527357392317 20  Z " fill-rule="nonzero" fill="#068a7a" stroke="none" transform="matrix(1 0 0 1 82 402 )" />
  </g>
</svg>